<svg width="40" height="48" viewBox="0 0 40 48" fill="none" xmlns="http://www.w3.org/2000/svg">
<path d="M17.9805 0.103802C12.2836 0.713885 7.03636 4.10219 3.78222 9.2832C2.24774 11.7329 1.09247 15.1212 0.739721 18.1998C0.607438 19.373 0.633895 21.5881 0.783815 22.5361C1.73625 28.3084 7.10691 36.4554 15.7317 45.203C17.5043 46.9957 17.9012 47.3524 18.4567 47.6527C19.0829 47.9812 19.1623 48 19.9648 48C20.7673 48 20.8466 47.9812 21.4728 47.6527C22.0284 47.3524 22.4252 46.9957 24.1978 45.203C29.7978 39.5245 34.3042 33.7334 36.7911 28.9936C38.0169 26.6471 38.7489 24.6667 39.1104 22.6956C39.3045 21.635 39.3397 19.5232 39.1898 18.1998C38.8635 15.3183 37.8582 12.2304 36.4824 9.84636C35.4154 8.00672 33.6604 5.8949 32.0818 4.53394C28.1486 1.17379 23.0337 -0.44058 17.9805 0.103802ZM22.7868 1.6337C27.4519 2.45966 31.6144 5.14402 34.4012 9.13303C36.262 11.7892 37.3731 14.6707 37.8317 18.0121C38.0434 19.6171 37.9728 21.9635 37.6553 23.2212C36.2796 28.7777 31.3587 35.9391 23.1484 44.3207C22.0548 45.4283 21.1729 46.2542 20.9437 46.3762C20.4145 46.6484 19.8237 46.6954 19.2769 46.4983C18.7478 46.3199 17.566 45.1936 14.9469 42.406C9.37335 36.4835 5.72236 31.4902 3.64993 26.9756C2.36238 24.188 1.97436 22.6299 1.97436 20.3116C1.97436 11.7517 7.6625 4.10219 15.6083 1.97159C16.2785 1.79326 17.6895 1.53046 18.4215 1.45537C19.1623 1.38028 21.9843 1.49291 22.7868 1.6337Z" fill="#FFB60A"/>
<path d="M18.4654 5.25629C15.176 5.65988 12.3452 7.05838 9.9641 9.47055C7.82113 11.6481 6.40129 14.3606 5.7487 17.5706C5.58114 18.3965 5.55469 18.8095 5.55469 20.5928C5.55469 22.3761 5.58114 22.7891 5.7487 23.6057C6.18082 25.7081 7.03625 27.82 8.12097 29.4625C8.97639 30.7484 10.6167 32.4566 11.7984 33.3013C15.0526 35.6103 18.5536 36.4362 22.3898 35.7886C22.8749 35.7041 23.3952 35.5821 23.5539 35.5164C24.0125 35.3099 24.0742 34.6529 23.6597 34.3244C23.4393 34.1461 23.4216 34.1461 22.4251 34.3525C21.1111 34.6341 18.9328 34.6529 17.6718 34.3995C14.9644 33.8457 12.6009 32.5223 10.6608 30.448C9.41733 29.134 8.01514 26.9471 8.28852 26.7594C8.34144 26.7218 9.38206 25.8114 10.5902 24.7414C12.0277 23.4743 12.8214 22.714 12.8567 22.5639C12.9801 22.057 12.4334 21.5314 12.0012 21.7473C11.8954 21.7942 10.8724 22.6671 9.73481 23.6714L7.66239 25.5016L7.53892 25.2107C7.34491 24.7226 7.01861 23.249 6.90397 22.3574C6.74523 21.0903 6.85105 18.7626 7.11562 17.5424C8.23561 12.521 11.6309 8.6446 16.199 7.1804C17.5483 6.74865 18.4037 6.61724 19.9646 6.61724C21.6755 6.61724 22.6103 6.7768 24.1183 7.3118C25.8997 7.94065 27.4871 8.92617 28.8011 10.212C29.5948 11.0005 29.8946 11.1131 30.2298 10.7564C30.6442 10.3153 30.5561 10.0525 29.7271 9.21713C26.8257 6.29812 22.478 4.76822 18.4654 5.25629Z" fill="#FFB60A"/>
<path d="M23.1396 11.6953C22.5663 11.9206 21.7991 12.7559 21.5963 13.4035C21.2435 14.5392 21.6051 15.8157 22.4782 16.529C23.8186 17.6178 25.6794 17.1485 26.4731 15.5248C26.8082 14.8302 26.8082 13.8541 26.4643 13.1126C26.1644 12.465 25.5736 11.883 25.018 11.6859C24.5065 11.4982 23.6599 11.5076 23.1396 11.6953ZM24.727 13.0844C25.5295 13.5256 25.6441 14.7176 24.9474 15.3652C24.3742 15.9096 23.4659 15.7969 23.0161 15.1305C22.7604 14.7551 22.7339 14.0042 22.9544 13.6194C23.3248 13 24.1273 12.7559 24.727 13.0844Z" fill="#FFB60A"/>
<path d="M31.0852 12.155C30.856 12.4647 30.856 12.6242 31.0764 13.0372C31.535 13.8913 32.1347 15.2147 32.3552 15.853C32.849 17.3266 33.0254 18.3872 33.0783 20.2831C33.1048 21.2593 33.1048 22.0477 33.0695 22.0477C33.0342 22.0477 32.2052 21.3625 31.2263 20.5272C30.2475 19.6824 29.3038 18.9222 29.1363 18.8377C28.7483 18.6218 28.2191 18.6312 27.7694 18.8471C27.5753 18.9503 26.667 19.6824 25.7587 20.499C24.6122 21.5033 24.0655 21.935 23.9949 21.8787C23.9332 21.8318 22.6897 20.7806 21.2346 19.5323C19.7707 18.2933 18.4831 17.2515 18.3773 17.2139C17.9716 17.0732 17.3279 17.1389 17.0016 17.3453C16.3666 17.7489 13.8092 20.0766 13.7563 20.3113C13.6328 20.8181 14.1796 21.3437 14.6117 21.1372C14.7175 21.0809 15.423 20.4896 16.1726 19.8232C16.9222 19.1568 17.6013 18.5843 17.6806 18.5561C17.76 18.5186 17.9187 18.5655 18.0422 18.65C18.5537 19.016 30.3709 29.1153 30.3709 29.1903C30.3709 29.2279 29.9476 29.7253 29.4273 30.2885C28.3779 31.4242 27.5401 32.1187 26.4024 32.8039C25.988 33.0479 25.5823 33.3107 25.5029 33.3858C25.2825 33.5829 25.3001 34.1085 25.5206 34.3432C25.7675 34.606 26.0585 34.5778 26.6935 34.2399C29.8506 32.5505 32.5492 29.1622 33.7132 25.4454C34.2688 23.6714 34.3747 22.8736 34.3747 20.5929C34.3747 18.3215 34.2688 17.5237 33.7132 15.7404C33.387 14.6704 32.5051 12.7369 32.1347 12.2582C31.7819 11.8171 31.3674 11.7701 31.0852 12.155ZM30.6884 21.86C32.4345 23.3429 32.7873 23.6808 32.7696 23.8592C32.6638 24.6288 31.6585 27.2005 31.2352 27.8012C31.1293 27.9514 30.856 27.7355 28.1398 25.4172C26.4995 24.0187 25.1766 22.8549 25.2031 22.8267C25.5911 22.4043 28.3338 20.0766 28.4396 20.0766C28.519 20.0766 29.5243 20.8838 30.6884 21.86Z" fill="#FFB60A"/>
</svg>
