<svg width="45" height="48" viewBox="0 0 45 48" fill="none" xmlns="http://www.w3.org/2000/svg">
<path d="M24.9646 0.0960599C24.7881 0.161798 24.5146 0.321446 24.3646 0.44353C24.2234 0.565614 21.5322 4.67891 18.3909 9.59045L12.682 18.512L11.0673 18.5402L9.45253 18.5589L9.49665 18.2584C9.52312 18.0894 9.69077 16.4084 9.85842 14.5208C10.0261 12.6332 10.1849 10.9146 10.2114 10.6986C10.2643 10.3136 10.2908 10.2854 10.8908 9.94731C11.4908 9.60923 12.3379 8.83916 12.6908 8.29448L12.8673 8.02214L15.4174 8.30387C17.1468 8.4823 18.0556 8.54804 18.2145 8.49169C18.7086 8.31326 18.7439 7.50563 18.2674 7.28963C18.1527 7.23329 16.8997 7.07364 15.4703 6.92338C12.5938 6.63226 12.3732 6.64165 11.9496 7.13938C11.8085 7.29902 11.4908 7.66528 11.2349 7.9564C10.9702 8.26631 10.5908 8.5856 10.282 8.74525C9.49665 9.14907 9.22311 9.40263 9.08193 9.84401C8.99369 10.0882 8.79075 11.9288 8.56133 14.3987L8.18191 18.5589H7.7672H7.34366L7.38778 18.2021C7.41425 18.0143 7.69661 15.0748 8.00544 11.6753C8.32309 8.26631 8.6231 5.41142 8.66722 5.30811C8.79957 5.04516 9.04664 4.94186 9.52312 4.94186C9.75253 4.94186 12.1085 5.17664 14.7468 5.45837C18.9998 5.90914 19.5821 5.94671 19.7939 5.83401C20.2175 5.59924 20.1998 4.85734 19.7674 4.66013C19.6527 4.61317 18.0998 4.42535 16.2997 4.23753C14.5085 4.04971 12.2143 3.81493 11.1996 3.70224C10.1761 3.59894 9.19664 3.54259 8.98487 3.57076C8.18191 3.70224 7.49366 4.43474 7.33484 5.34568C7.28189 5.61802 7.03483 8.09727 6.77894 10.8582L6.32011 15.8825L5.20832 15.9388C4.25536 15.9764 4.03477 16.0233 3.673 16.2206C2.92298 16.6338 2.49944 17.4132 2.49062 18.4181C2.48179 18.8688 2.46415 18.897 2.06708 19.1694C1.84649 19.3196 1.52883 19.6295 1.37001 19.8549C0.778819 20.6813 0.80529 19.9582 0.831761 33.5002L0.858232 45.7461L1.07 46.2345C1.32589 46.8543 2.04943 47.5774 2.62297 47.8216C3.05534 48 3.51417 48 21.6822 48H40.3002L40.7591 47.7746C41.3061 47.5117 41.9591 46.8073 42.2238 46.1875C42.4091 45.7649 42.4179 45.6147 42.4444 42.1494L42.4709 38.562H42.7973C43.5562 38.562 44.2268 38.1581 44.4562 37.5571C44.5533 37.3129 44.5797 36.4302 44.5797 33.3029C44.5797 29.5559 44.5709 29.3305 44.4032 28.983C44.1385 28.429 43.7679 28.1942 43.062 28.1566L42.462 28.1191V24.7195C42.462 21.8646 42.4356 21.2354 42.3209 20.8128C42.162 20.2493 41.7914 19.6107 41.4473 19.329C41.2444 19.16 41.2267 19.0754 41.2267 18.4462C41.2267 17.6104 40.962 16.9437 40.4502 16.4929C40.0796 16.1736 39.4267 15.9294 38.9149 15.9294H38.5708L39.6031 14.3236C40.1767 13.4314 40.6885 12.5205 40.7591 12.2763C40.9708 11.525 40.7414 10.6329 40.1943 10.0976C40.062 9.96609 38.8973 9.09272 37.609 8.163C36.3207 7.23329 33.3648 5.08273 31.0353 3.39233C28.7059 1.70194 26.6852 0.255708 26.5441 0.18058C26.1823 -0.0166331 25.3705 -0.0635886 24.9646 0.0960599ZM26.0588 1.47655C26.597 1.77706 39.1002 10.9146 39.312 11.1494C39.7002 11.5908 39.6384 11.8161 38.7825 13.1685C38.3502 13.8352 37.4149 15.319 36.6825 16.4647L35.3589 18.5495L34.8472 18.5589H34.3442L35.3766 16.9531C35.9413 16.0609 36.4531 15.1781 36.5237 14.9715C36.656 14.5489 36.6031 14.2296 36.2325 13.2999C36.0295 12.7834 35.9854 12.5393 35.9678 11.6753C35.9501 10.8395 35.906 10.6047 35.756 10.3511C35.6325 10.1257 34.5383 9.28054 31.9971 7.43989C30.0294 6.01245 28.3264 4.801 28.2029 4.75404C27.8147 4.59439 27.4088 4.65074 26.6941 4.96064C26.094 5.22359 25.8911 5.26116 25.0617 5.27994C23.9499 5.30811 23.6322 5.4302 23.2528 6.00305C23.1028 6.21905 21.2675 9.08333 19.1674 12.3608C17.0674 15.6383 15.3026 18.3805 15.2497 18.4462C15.1791 18.5214 14.9762 18.5589 14.685 18.5402L14.2438 18.512L19.6174 10.107C22.5734 5.48654 25.0793 1.62681 25.1764 1.5329C25.3882 1.35447 25.794 1.32629 26.0588 1.47655ZM31.3 8.5856L34.653 11.0179L34.706 12.0415C34.7501 12.8398 34.8119 13.206 34.9972 13.7225C35.1295 14.0794 35.2442 14.4456 35.2531 14.5208C35.2619 14.6053 34.7148 15.5444 34.0354 16.615L32.8001 18.5495L31.6971 18.5589H30.5853L30.4883 17.9297C30.3471 17.0658 29.7735 15.8825 29.1735 15.1875C28.5382 14.455 27.8588 13.9855 26.9499 13.6474C25.1058 12.9712 22.8999 13.5253 21.541 15.0091C20.7822 15.8355 20.2086 17.0094 20.0675 18.0236L20.0057 18.512L18.3909 18.5402C17.0939 18.5589 16.785 18.5402 16.838 18.4462C16.8821 18.3805 18.5939 15.6947 20.6498 12.4735L24.3911 6.63226H25.2205C25.8558 6.63226 26.1999 6.57591 26.7294 6.39748C27.1088 6.266 27.4794 6.12514 27.5411 6.07818C27.6205 6.02184 27.7353 6.02184 27.8058 6.06879C27.8853 6.11575 29.4559 7.24268 31.3 8.5856ZM26.2705 14.8495C26.9852 15.0561 27.5764 15.4129 28.1147 15.9858C28.6706 16.5774 29.0059 17.2066 29.1735 17.9767L29.2971 18.5589H25.2911H21.2763L21.3381 18.2021C21.744 15.8261 24.0646 14.239 26.2705 14.8495ZM6.16128 17.6292C6.13481 17.7889 6.10834 18.0706 6.10834 18.2396V18.5589H4.96126H3.81418V18.2209C3.81418 17.9767 3.88477 17.817 4.07006 17.6104C4.32595 17.3475 4.35242 17.3381 5.27009 17.3381H6.22305L6.16128 17.6292ZM39.5767 17.5353C39.8326 17.7419 40.0708 18.4275 39.9385 18.5402C39.8943 18.5777 39.1973 18.5965 38.3855 18.5777L36.9119 18.5495L37.2825 17.9485L37.6531 17.3381H38.5002C39.2237 17.3381 39.3826 17.3663 39.5767 17.5353ZM40.4943 20.3057C41.0502 20.7752 41.1385 21.0664 41.1385 22.3811V23.5362H21.6381H2.13767V22.3623C2.13767 21.5265 2.17296 21.1039 2.2612 20.9255C2.42003 20.5968 2.82592 20.193 3.10828 20.0709C3.24946 20.0146 9.64665 19.9864 21.744 19.9958L40.1502 20.0146L40.4943 20.3057ZM41.1385 26.5414V28.1378H37.8119C35.1472 28.1378 34.3619 28.166 33.9119 28.2787C32.3677 28.6731 31.0441 29.9315 30.4618 31.5656C30.2147 32.2699 30.1265 33.7068 30.2853 34.4393C30.6824 36.2611 31.9883 37.7449 33.7266 38.3366C34.1413 38.4774 34.6883 38.5056 37.6796 38.5432L41.1385 38.5807V40.1678V41.7549H25.2734C9.479 41.7549 9.39958 41.7549 9.24076 41.9427C9.03781 42.1869 9.03781 42.6377 9.24076 42.8819C9.39958 43.0697 9.479 43.0697 25.2734 43.0697H41.1385V44.2623C41.1385 45.3329 41.112 45.502 40.9355 45.84C40.8208 46.0467 40.5826 46.3002 40.3885 46.4223L40.0355 46.6383H21.6557C1.17589 46.6383 2.92298 46.6946 2.42003 45.9997C2.19061 45.6804 2.18179 45.6147 2.15532 44.3656L2.12002 43.0697H3.98183C5.72892 43.0697 5.85245 43.0603 6.0201 42.8819C6.11716 42.7786 6.19658 42.572 6.19658 42.4123C6.19658 42.2527 6.11716 42.0461 6.0201 41.9427C5.85245 41.7643 5.72892 41.7549 3.99065 41.7549H2.13767V33.3499V24.9449H21.6381H41.1385V26.5414ZM43.2385 33.3217L43.2562 37.1533H38.959C36.4354 37.1533 34.4942 37.1063 34.2736 37.0594C32.8883 36.7119 31.7765 35.4629 31.5118 33.9509C31.1589 31.8943 32.5883 29.8282 34.5472 29.5559C34.8472 29.5089 36.9207 29.4808 39.1531 29.4902L43.212 29.4996L43.2385 33.3217Z" fill="#4086F4"/>
</svg>
