<svg width="169" height="189" viewBox="0 0 169 189" fill="none" xmlns="http://www.w3.org/2000/svg">
<path d="M59.0198 104.128L56.2102 105.348L44.9812 97.4883L41.9922 99.1483C39.591 100.588 37.2595 100.688 36.1436 100.048L35.9144 100.158C34.1807 100.918 33.1545 100.238 32.8058 99.4183C32.457 98.5983 32.6563 97.4183 34.39 96.6383L34.6191 96.5383C34.8284 95.5383 35.7351 93.8583 39.2722 92.8683L42.5302 91.8183L44.5229 78.2283L47.3326 76.9983L49.5146 89.5883L57.5453 86.8283L58.7608 83.5983L60.9927 82.7683L61.152 85.7683L61.9491 85.6983L62.6765 87.3683L62.0787 87.9583L64.1909 90.1583L62.0588 91.2283L58.8904 89.9083L51.3878 93.9083L59.0198 104.128ZM58.8106 89.1783L61.999 90.5083L62.9953 89.9883L61.0624 87.9883L61.7897 87.2483L61.4509 86.4583L60.4546 86.5483L60.3052 83.7483L59.2191 84.1483L58.0036 87.3883L48.9169 90.4983L46.7547 77.9883L45.0709 78.7183L43.128 92.3583L39.4515 93.5383C36.024 94.4883 35.3465 96.0283 35.2468 96.8583V97.0683L35.0476 97.1383C34.921 97.1745 34.7977 97.2213 34.6789 97.2783C33.6128 97.7383 33.1346 98.4683 33.4434 99.1683C33.7523 99.8683 34.5992 100.028 35.6653 99.5583C35.7853 99.5097 35.9018 99.4528 36.0141 99.3883L36.2034 99.2783L36.3827 99.4083C37.11 99.9483 39.2323 100.048 41.6833 98.5883L45.031 96.7083L56.2898 104.598L57.9737 103.868L50.3416 93.7283L58.8106 89.1783Z" fill="#999999"/>
<path d="M155.447 188.058C155.501 188.059 155.555 188.045 155.602 188.019C155.649 187.993 155.689 187.954 155.716 187.908C156.075 187.361 156.407 186.811 156.713 186.258C156.758 186.185 156.773 186.097 156.754 186.012C156.736 185.928 156.685 185.855 156.613 185.808C156.539 185.763 156.45 185.75 156.366 185.771C156.283 185.791 156.21 185.844 156.165 185.918C155.826 186.468 155.487 187.008 155.168 187.558C155.144 187.593 155.127 187.633 155.119 187.675C155.11 187.717 155.11 187.76 155.119 187.802C155.127 187.844 155.144 187.884 155.168 187.919C155.192 187.954 155.222 187.985 155.258 188.008C155.316 188.04 155.381 188.057 155.447 188.058ZM157.44 184.738C157.496 184.737 157.552 184.722 157.6 184.694C157.649 184.666 157.69 184.626 157.719 184.578C158.038 184.008 158.357 183.438 158.715 182.868C158.756 182.793 158.766 182.706 158.744 182.624C158.721 182.542 158.668 182.472 158.596 182.428C158.52 182.388 158.432 182.38 158.351 182.404C158.269 182.428 158.199 182.483 158.157 182.558C157.849 183.128 157.53 183.688 157.211 184.248C157.167 184.322 157.153 184.411 157.174 184.495C157.194 184.58 157.247 184.652 157.321 184.698C157.372 184.726 157.431 184.74 157.49 184.738H157.44ZM159.293 181.318C159.353 181.317 159.412 181.3 159.463 181.268C159.514 181.237 159.555 181.191 159.582 181.138C159.881 180.558 160.17 179.968 160.449 179.388C160.468 179.35 160.479 179.308 160.481 179.266C160.484 179.224 160.478 179.181 160.464 179.141C160.45 179.101 160.428 179.065 160.4 179.033C160.372 179.002 160.338 178.976 160.3 178.958C160.262 178.939 160.221 178.928 160.178 178.926C160.136 178.923 160.094 178.929 160.054 178.943C160.014 178.957 159.978 178.979 159.946 179.007C159.915 179.035 159.889 179.07 159.871 179.108C159.592 179.688 159.303 180.268 159.004 180.848C158.986 180.886 158.975 180.927 158.972 180.969C158.97 181.012 158.976 181.054 158.99 181.094C159.003 181.134 159.025 181.171 159.053 181.203C159.082 181.234 159.116 181.26 159.154 181.278C159.181 181.298 159.211 181.312 159.244 181.319C159.277 181.326 159.311 181.325 159.343 181.318H159.293ZM160.977 177.798C161.04 177.797 161.101 177.779 161.153 177.745C161.206 177.712 161.249 177.664 161.276 177.608L162.053 175.818C162.086 175.737 162.086 175.646 162.052 175.566C162.019 175.485 161.954 175.421 161.874 175.388C161.795 175.358 161.707 175.36 161.629 175.393C161.551 175.427 161.489 175.489 161.455 175.568C161.206 176.158 160.947 176.748 160.688 177.348C160.67 177.386 160.66 177.427 160.658 177.469C160.656 177.511 160.663 177.553 160.678 177.592C160.693 177.631 160.716 177.667 160.745 177.697C160.774 177.728 160.809 177.752 160.848 177.768C160.903 177.796 160.966 177.806 161.027 177.798H160.977ZM162.482 174.208C162.545 174.207 162.608 174.188 162.661 174.152C162.714 174.117 162.755 174.067 162.781 174.008C163.02 173.388 163.249 172.778 163.478 172.168C163.492 172.128 163.498 172.085 163.496 172.043C163.493 172.001 163.483 171.959 163.464 171.921C163.445 171.883 163.42 171.849 163.388 171.821C163.356 171.793 163.319 171.771 163.279 171.758C163.199 171.731 163.113 171.736 163.037 171.772C162.961 171.807 162.902 171.87 162.87 171.948C162.651 172.558 162.422 173.158 162.183 173.768C162.153 173.848 162.155 173.936 162.188 174.014C162.222 174.092 162.284 174.155 162.362 174.188L162.482 174.208ZM163.817 170.548C163.883 170.547 163.948 170.525 164.001 170.486C164.055 170.446 164.095 170.391 164.116 170.328C164.335 169.708 164.534 169.088 164.723 168.468C164.749 168.386 164.741 168.297 164.702 168.22C164.663 168.144 164.595 168.085 164.514 168.058C164.432 168.032 164.344 168.04 164.267 168.079C164.191 168.119 164.133 168.186 164.106 168.268C163.916 168.888 163.717 169.498 163.508 170.118C163.483 170.2 163.49 170.289 163.529 170.366C163.569 170.442 163.636 170.5 163.717 170.528L163.817 170.548ZM164.973 166.828C165.043 166.826 165.111 166.802 165.166 166.759C165.222 166.716 165.262 166.656 165.281 166.588C165.461 165.958 165.64 165.328 165.8 164.708C165.821 164.624 165.809 164.536 165.766 164.461C165.723 164.386 165.653 164.331 165.57 164.308C165.53 164.297 165.488 164.295 165.446 164.301C165.405 164.307 165.365 164.321 165.329 164.342C165.293 164.363 165.261 164.392 165.236 164.425C165.211 164.459 165.192 164.497 165.182 164.538C165.012 165.158 164.843 165.788 164.664 166.408C164.652 166.449 164.648 166.491 164.652 166.534C164.656 166.576 164.669 166.617 164.69 166.654C164.71 166.691 164.738 166.724 164.771 166.75C164.804 166.777 164.842 166.796 164.883 166.808L164.973 166.828ZM165.969 163.058C166.041 163.056 166.109 163.03 166.165 162.985C166.221 162.94 166.26 162.878 166.278 162.808C166.427 162.168 166.577 161.528 166.706 160.898C166.716 160.857 166.718 160.815 166.712 160.773C166.705 160.732 166.69 160.692 166.668 160.656C166.646 160.621 166.616 160.59 166.582 160.566C166.547 160.543 166.508 160.526 166.467 160.518C166.426 160.507 166.383 160.505 166.341 160.512C166.299 160.518 166.259 160.533 166.222 160.556C166.186 160.578 166.155 160.607 166.13 160.642C166.105 160.677 166.088 160.716 166.079 160.758C165.949 161.388 165.8 162.018 165.65 162.658C165.632 162.741 165.647 162.828 165.691 162.901C165.736 162.974 165.807 163.026 165.889 163.048L165.969 163.058ZM166.786 159.238C166.861 159.239 166.934 159.214 166.993 159.166C167.051 159.119 167.091 159.052 167.105 158.978C167.224 158.338 167.344 157.698 167.453 157.058C167.468 156.974 167.449 156.888 167.4 156.819C167.352 156.75 167.278 156.702 167.194 156.688C167.152 156.679 167.109 156.679 167.067 156.688C167.025 156.696 166.985 156.713 166.95 156.737C166.915 156.761 166.885 156.793 166.862 156.829C166.839 156.865 166.823 156.905 166.816 156.948C166.706 157.578 166.597 158.218 166.467 158.858C166.458 158.9 166.458 158.943 166.467 158.985C166.475 159.028 166.492 159.068 166.516 159.103C166.54 159.138 166.571 159.169 166.608 159.192C166.644 159.215 166.684 159.231 166.726 159.238H166.786ZM167.444 155.398C167.521 155.401 167.596 155.375 167.655 155.325C167.714 155.275 167.752 155.205 167.762 155.128C167.862 154.478 167.952 153.828 168.031 153.188C168.037 153.146 168.034 153.103 168.023 153.062C168.012 153.021 167.993 152.983 167.967 152.949C167.941 152.916 167.909 152.888 167.872 152.867C167.835 152.846 167.794 152.833 167.752 152.828C167.71 152.821 167.667 152.823 167.626 152.833C167.584 152.844 167.546 152.863 167.512 152.889C167.478 152.915 167.45 152.948 167.43 152.986C167.41 153.024 167.397 153.065 167.394 153.108C167.314 153.734 167.224 154.374 167.125 155.028C167.113 155.112 167.135 155.198 167.185 155.267C167.235 155.336 167.31 155.383 167.394 155.398H167.444ZM167.932 151.528C168.012 151.531 168.09 151.502 168.15 151.448C168.209 151.394 168.245 151.318 168.251 151.238C168.32 150.588 168.39 149.938 168.44 149.298C168.445 149.212 168.417 149.127 168.361 149.062C168.306 148.996 168.226 148.955 168.141 148.948C168.099 148.942 168.057 148.945 168.017 148.957C167.976 148.969 167.939 148.99 167.907 149.017C167.875 149.044 167.849 149.078 167.831 149.116C167.813 149.154 167.803 149.196 167.802 149.238C167.742 149.878 167.683 150.528 167.613 151.178C167.609 151.22 167.613 151.262 167.625 151.303C167.638 151.343 167.658 151.381 167.685 151.413C167.712 151.446 167.745 151.473 167.782 151.492C167.819 151.512 167.86 151.524 167.902 151.528H167.932ZM168.261 147.648C168.342 147.648 168.42 147.617 168.479 147.561C168.538 147.506 168.574 147.429 168.579 147.348C168.579 146.678 168.659 146.028 168.679 145.348C168.682 145.305 168.676 145.262 168.662 145.222C168.647 145.181 168.625 145.144 168.596 145.112C168.568 145.08 168.533 145.055 168.494 145.037C168.455 145.019 168.413 145.009 168.37 145.008C168.286 145.012 168.207 145.045 168.145 145.101C168.083 145.158 168.043 145.235 168.031 145.318C168.031 145.958 168.031 146.608 167.942 147.258C167.936 147.344 167.964 147.428 168.02 147.494C168.076 147.559 168.155 147.6 168.241 147.608L168.261 147.648ZM168.41 143.748C168.495 143.748 168.576 143.714 168.635 143.654C168.695 143.594 168.729 143.513 168.729 143.428C168.729 142.968 168.729 142.518 168.729 142.068V141.478C168.729 141.393 168.695 141.312 168.635 141.252C168.576 141.192 168.495 141.158 168.41 141.158C168.325 141.158 168.244 141.192 168.185 141.252C168.125 141.312 168.091 141.393 168.091 141.478V142.068C168.091 142.518 168.091 142.968 168.091 143.418C168.09 143.461 168.097 143.503 168.113 143.543C168.128 143.583 168.151 143.62 168.181 143.651C168.211 143.681 168.246 143.706 168.286 143.723C168.325 143.739 168.367 143.748 168.41 143.748ZM168.41 139.848C168.453 139.848 168.495 139.839 168.534 139.823C168.574 139.806 168.609 139.781 168.639 139.751C168.669 139.72 168.692 139.683 168.708 139.643C168.723 139.603 168.73 139.561 168.729 139.518C168.729 138.848 168.669 138.198 168.639 137.518C168.632 137.432 168.591 137.353 168.526 137.297C168.46 137.241 168.376 137.212 168.29 137.218C168.249 137.22 168.208 137.231 168.17 137.25C168.132 137.268 168.098 137.294 168.071 137.326C168.043 137.357 168.022 137.394 168.008 137.434C167.994 137.474 167.989 137.516 167.992 137.558C167.992 138.188 168.061 138.838 168.081 139.498C168.077 139.545 168.082 139.593 168.098 139.637C168.114 139.682 168.14 139.722 168.173 139.756C168.206 139.789 168.247 139.815 168.291 139.831C168.336 139.847 168.383 139.852 168.43 139.848H168.41ZM168.181 135.958C168.223 135.954 168.264 135.942 168.301 135.922C168.338 135.903 168.371 135.876 168.398 135.843C168.425 135.811 168.445 135.773 168.457 135.733C168.47 135.692 168.474 135.65 168.47 135.608C168.41 134.941 168.34 134.274 168.261 133.608C168.257 133.565 168.245 133.524 168.224 133.486C168.204 133.448 168.176 133.415 168.142 133.389C168.109 133.363 168.07 133.344 168.028 133.333C167.987 133.323 167.944 133.321 167.902 133.328C167.818 133.34 167.742 133.385 167.69 133.452C167.638 133.519 167.614 133.603 167.623 133.688C167.703 134.298 167.772 134.948 167.832 135.618C167.828 135.667 167.836 135.717 167.854 135.762C167.872 135.808 167.901 135.849 167.937 135.882C167.974 135.915 168.018 135.939 168.065 135.952C168.113 135.965 168.162 135.967 168.211 135.958H168.181ZM167.703 132.088C167.786 132.073 167.86 132.026 167.908 131.957C167.957 131.887 167.976 131.801 167.962 131.718L167.902 131.328C167.812 130.818 167.713 130.328 167.613 129.788C167.605 129.746 167.588 129.707 167.565 129.672C167.541 129.637 167.511 129.607 167.476 129.584C167.44 129.56 167.401 129.544 167.359 129.536C167.318 129.529 167.276 129.529 167.234 129.538C167.192 129.545 167.152 129.561 167.117 129.584C167.081 129.607 167.05 129.638 167.027 129.673C167.004 129.709 166.988 129.749 166.981 129.791C166.973 129.833 166.975 129.876 166.985 129.918C167.085 130.428 167.175 130.918 167.264 131.438L167.334 131.818C167.338 131.863 167.352 131.906 167.375 131.945C167.398 131.984 167.429 132.018 167.466 132.044C167.503 132.069 167.545 132.087 167.589 132.094C167.634 132.102 167.679 132.1 167.723 132.088H167.703ZM166.935 128.268H167.005C167.046 128.26 167.085 128.243 167.12 128.219C167.154 128.195 167.184 128.165 167.206 128.129C167.228 128.094 167.243 128.054 167.25 128.013C167.256 127.971 167.255 127.929 167.244 127.888C167.095 127.248 166.945 126.618 166.776 125.978C166.765 125.937 166.745 125.899 166.719 125.865C166.692 125.832 166.66 125.804 166.623 125.784C166.586 125.763 166.545 125.751 166.503 125.746C166.461 125.742 166.418 125.746 166.377 125.758C166.337 125.768 166.299 125.787 166.265 125.812C166.232 125.837 166.204 125.869 166.182 125.905C166.161 125.941 166.147 125.981 166.141 126.023C166.135 126.065 166.138 126.107 166.148 126.148C166.318 126.778 166.477 127.398 166.617 128.028C166.637 128.101 166.682 128.164 166.743 128.208C166.805 128.252 166.88 128.273 166.955 128.268H166.935ZM165.939 124.508H166.029C166.069 124.496 166.108 124.477 166.141 124.45C166.174 124.424 166.201 124.391 166.222 124.354C166.242 124.317 166.255 124.276 166.26 124.234C166.264 124.191 166.26 124.149 166.248 124.108C166.059 123.478 165.859 122.858 165.65 122.238C165.637 122.198 165.615 122.16 165.587 122.128C165.56 122.097 165.526 122.071 165.488 122.052C165.45 122.033 165.408 122.022 165.366 122.02C165.324 122.018 165.281 122.024 165.242 122.038C165.202 122.051 165.164 122.073 165.133 122.101C165.101 122.129 165.075 122.163 165.056 122.201C165.038 122.239 165.027 122.281 165.025 122.323C165.022 122.365 165.028 122.408 165.042 122.448C165.252 123.058 165.441 123.678 165.63 124.298C165.654 124.363 165.697 124.418 165.755 124.456C165.812 124.494 165.88 124.512 165.949 124.508H165.939ZM164.694 120.808C164.73 120.817 164.767 120.817 164.803 120.808C164.882 120.779 164.947 120.719 164.982 120.642C165.018 120.565 165.021 120.477 164.993 120.398C164.763 119.788 164.524 119.178 164.265 118.578C164.25 118.538 164.227 118.502 164.197 118.471C164.168 118.441 164.133 118.416 164.094 118.4C164.055 118.383 164.013 118.374 163.97 118.374C163.928 118.373 163.886 118.382 163.847 118.398C163.808 118.414 163.773 118.438 163.744 118.468C163.714 118.498 163.691 118.534 163.675 118.573C163.659 118.612 163.652 118.653 163.652 118.695C163.652 118.737 163.661 118.779 163.677 118.818C163.926 119.418 164.166 120.018 164.385 120.628C164.414 120.686 164.46 120.734 164.517 120.766C164.574 120.798 164.639 120.813 164.704 120.808H164.694ZM163.229 117.268C163.275 117.277 163.322 117.277 163.368 117.268C163.445 117.231 163.505 117.165 163.535 117.085C163.565 117.005 163.562 116.916 163.528 116.838C163.249 116.248 162.97 115.658 162.671 115.068C162.631 114.994 162.564 114.939 162.484 114.913C162.405 114.887 162.318 114.892 162.243 114.928C162.165 114.967 162.106 115.035 162.078 115.117C162.05 115.199 162.055 115.29 162.093 115.368C162.392 115.938 162.671 116.518 162.94 117.108C162.968 117.159 163.01 117.201 163.061 117.23C163.113 117.258 163.171 117.271 163.229 117.268ZM161.475 113.788C161.524 113.801 161.576 113.801 161.625 113.788C161.663 113.768 161.696 113.741 161.723 113.708C161.75 113.674 161.77 113.636 161.782 113.595C161.794 113.554 161.798 113.511 161.793 113.469C161.788 113.426 161.775 113.385 161.754 113.348C161.436 112.778 161.107 112.208 160.758 111.658C160.737 111.621 160.71 111.588 160.676 111.562C160.642 111.536 160.604 111.517 160.563 111.507C160.522 111.497 160.479 111.495 160.437 111.502C160.395 111.509 160.355 111.525 160.32 111.548C160.284 111.569 160.252 111.598 160.227 111.632C160.202 111.666 160.184 111.704 160.174 111.745C160.164 111.786 160.161 111.828 160.168 111.87C160.174 111.912 160.188 111.952 160.21 111.988C160.549 112.538 160.868 113.098 161.206 113.668C161.239 113.696 161.277 113.716 161.319 113.728C161.36 113.74 161.403 113.743 161.446 113.738L161.475 113.788ZM159.483 110.458C159.541 110.476 159.604 110.476 159.662 110.458C159.698 110.435 159.729 110.404 159.753 110.369C159.777 110.334 159.793 110.294 159.802 110.252C159.81 110.21 159.81 110.167 159.801 110.125C159.793 110.083 159.776 110.043 159.752 110.008C159.383 109.468 159.014 108.928 158.626 108.398C158.574 108.331 158.499 108.286 158.416 108.273C158.332 108.26 158.247 108.279 158.177 108.328C158.11 108.379 158.066 108.455 158.053 108.539C158.04 108.623 158.059 108.708 158.108 108.778C158.486 109.298 158.855 109.828 159.214 110.368C159.277 110.405 159.351 110.419 159.423 110.408L159.483 110.458ZM115.643 108.248H116.052C116.094 108.245 116.134 108.234 116.172 108.216C116.21 108.197 116.244 108.172 116.271 108.14C116.299 108.109 116.32 108.072 116.334 108.032C116.348 107.992 116.353 107.95 116.351 107.908C116.349 107.865 116.339 107.823 116.322 107.785C116.304 107.746 116.278 107.712 116.246 107.684C116.214 107.656 116.177 107.634 116.137 107.621C116.096 107.608 116.054 107.604 116.012 107.608C115.631 107.643 115.247 107.643 114.866 107.608C114.638 107.579 114.411 107.536 114.188 107.478C114.105 107.456 114.017 107.468 113.942 107.511C113.868 107.554 113.813 107.625 113.79 107.708C113.78 107.749 113.778 107.792 113.784 107.834C113.791 107.877 113.805 107.917 113.828 107.953C113.85 107.99 113.879 108.021 113.914 108.046C113.948 108.071 113.988 108.088 114.029 108.098C114.28 108.168 114.537 108.218 114.796 108.248C115.043 108.243 115.289 108.226 115.533 108.198L115.643 108.248ZM117.935 107.858H118.034C118.682 107.63 119.285 107.291 119.818 106.858C119.877 106.796 119.911 106.714 119.911 106.628C119.911 106.542 119.877 106.459 119.818 106.398C119.788 106.367 119.752 106.342 119.713 106.326C119.674 106.309 119.631 106.3 119.589 106.3C119.546 106.3 119.504 106.309 119.464 106.326C119.425 106.342 119.389 106.367 119.359 106.398C118.883 106.779 118.348 107.08 117.775 107.288C117.735 107.301 117.698 107.323 117.666 107.351C117.635 107.379 117.609 107.413 117.59 107.451C117.572 107.489 117.561 107.531 117.558 107.573C117.556 107.615 117.562 107.658 117.576 107.698C117.607 107.733 117.646 107.761 117.689 107.78C117.732 107.799 117.778 107.808 117.825 107.808L117.935 107.858ZM157.241 107.318C157.313 107.319 157.384 107.294 157.44 107.248C157.5 107.186 157.533 107.104 157.533 107.018C157.533 106.932 157.5 106.849 157.44 106.788C157.032 106.278 156.603 105.788 156.185 105.288C156.123 105.228 156.041 105.194 155.956 105.194C155.87 105.194 155.788 105.228 155.726 105.288C155.667 105.349 155.633 105.432 155.633 105.518C155.633 105.604 155.667 105.686 155.726 105.748C156.145 106.228 156.563 106.748 156.962 107.228C157.014 107.256 157.072 107.27 157.131 107.268L157.241 107.318ZM112.345 107.268C112.398 107.266 112.449 107.253 112.496 107.229C112.542 107.204 112.583 107.17 112.614 107.128C112.659 107.055 112.674 106.967 112.656 106.882C112.637 106.798 112.586 106.725 112.515 106.678C112.001 106.335 111.535 105.925 111.13 105.458C111.07 105.399 110.989 105.365 110.905 105.365C110.821 105.365 110.741 105.399 110.681 105.458C110.622 105.519 110.588 105.602 110.588 105.688C110.588 105.774 110.622 105.856 110.681 105.918C111.123 106.435 111.636 106.886 112.206 107.258C112.215 107.262 112.225 107.265 112.236 107.268H112.345ZM120.844 105.418C120.901 105.416 120.957 105.4 121.006 105.37C121.055 105.34 121.095 105.298 121.123 105.248C121.452 104.625 121.665 103.947 121.751 103.248C121.756 103.206 121.754 103.163 121.742 103.122C121.731 103.081 121.712 103.043 121.686 103.009C121.66 102.976 121.628 102.948 121.591 102.927C121.554 102.906 121.514 102.893 121.472 102.888C121.389 102.876 121.304 102.898 121.237 102.949C121.17 102.999 121.125 103.075 121.113 103.158C121.03 103.765 120.845 104.353 120.565 104.898C120.544 104.935 120.531 104.976 120.526 105.019C120.521 105.061 120.525 105.104 120.537 105.145C120.549 105.186 120.569 105.224 120.597 105.258C120.624 105.291 120.657 105.318 120.695 105.338C120.707 105.349 120.721 105.359 120.734 105.368L120.844 105.418ZM154.67 104.418C154.755 104.419 154.838 104.386 154.899 104.328C154.959 104.266 154.992 104.184 154.992 104.098C154.992 104.012 154.959 103.929 154.899 103.868C154.441 103.398 153.973 102.938 153.505 102.488C153.443 102.428 153.361 102.394 153.275 102.394C153.19 102.394 153.108 102.428 153.046 102.488C152.987 102.548 152.954 102.629 152.954 102.713C152.954 102.797 152.987 102.878 153.046 102.938C153.505 103.378 153.963 103.838 154.411 104.298C154.457 104.324 154.508 104.338 154.561 104.338L154.67 104.418ZM109.834 104.418C109.884 104.427 109.934 104.427 109.984 104.418C110.058 104.376 110.113 104.307 110.139 104.225C110.165 104.144 110.159 104.055 110.123 103.978C109.843 103.421 109.638 102.829 109.516 102.218C109.506 102.176 109.489 102.137 109.464 102.102C109.439 102.067 109.408 102.038 109.372 102.016C109.335 101.993 109.295 101.978 109.253 101.972C109.211 101.965 109.168 101.967 109.127 101.978C109.086 101.986 109.046 102.003 109.011 102.026C108.976 102.05 108.947 102.08 108.923 102.116C108.9 102.151 108.884 102.191 108.876 102.232C108.869 102.274 108.869 102.316 108.878 102.358C109.022 103.019 109.247 103.661 109.545 104.268C109.593 104.298 109.648 104.315 109.705 104.318L109.834 104.418ZM151.87 101.768C151.916 101.768 151.961 101.758 152.002 101.739C152.043 101.72 152.08 101.692 152.11 101.658C152.169 101.596 152.203 101.514 152.203 101.428C152.203 101.342 152.169 101.259 152.11 101.198L151.512 100.698L150.585 99.9678C150.516 99.9153 150.43 99.8921 150.344 99.9034C150.258 99.9146 150.18 99.9593 150.127 100.028C150.078 100.096 150.056 100.181 150.067 100.265C150.079 100.348 150.121 100.425 150.187 100.478L151.103 101.198L151.691 101.698C151.709 101.689 151.725 101.679 151.741 101.668L151.87 101.768ZM121.462 101.678C121.547 101.668 121.626 101.624 121.68 101.557C121.734 101.49 121.759 101.404 121.751 101.318C121.675 100.639 121.535 99.9697 121.332 99.3178C121.321 99.2769 121.301 99.2387 121.275 99.2054C121.249 99.1721 121.216 99.1444 121.179 99.124C121.142 99.1035 121.101 99.0906 121.059 99.0861C121.017 99.0816 120.974 99.0856 120.934 99.0978C120.893 99.1091 120.855 99.1287 120.822 99.1553C120.79 99.1819 120.763 99.2149 120.743 99.2524C120.723 99.2899 120.712 99.331 120.708 99.3732C120.705 99.4154 120.711 99.4578 120.725 99.4978C120.905 100.103 121.035 100.721 121.113 101.348C121.126 101.402 121.154 101.452 121.192 101.492C121.231 101.532 121.279 101.562 121.332 101.578L121.462 101.678ZM109.057 100.678C109.138 100.678 109.217 100.647 109.276 100.591C109.335 100.536 109.371 100.459 109.376 100.378C109.422 99.7629 109.563 99.159 109.794 98.5878C109.811 98.5491 109.82 98.5075 109.82 98.4654C109.82 98.4233 109.812 98.3816 109.797 98.3426C109.781 98.3035 109.758 98.268 109.728 98.238C109.699 98.2081 109.664 98.1842 109.625 98.1678C109.587 98.1513 109.545 98.1427 109.503 98.1423C109.461 98.142 109.42 98.1499 109.381 98.1657C109.342 98.1815 109.306 98.2048 109.277 98.2343C109.247 98.2639 109.223 98.2991 109.207 98.3378C108.943 98.9743 108.784 99.6499 108.738 100.338C108.734 100.381 108.739 100.424 108.752 100.465C108.765 100.506 108.786 100.544 108.814 100.577C108.842 100.609 108.876 100.636 108.914 100.655C108.953 100.674 108.994 100.685 109.037 100.688L109.057 100.678ZM148.652 99.2678C148.705 99.2687 148.757 99.2564 148.804 99.232C148.851 99.2075 148.892 99.1717 148.921 99.1278C148.968 99.057 148.986 98.9706 148.972 98.8867C148.957 98.8028 148.91 98.728 148.842 98.6778C148.304 98.3078 147.746 97.9478 147.198 97.6078C147.123 97.5634 147.035 97.55 146.951 97.5706C146.867 97.5912 146.795 97.6441 146.749 97.7178C146.728 97.7539 146.713 97.7939 146.707 97.8356C146.701 97.8773 146.703 97.9198 146.713 97.9607C146.723 98.0015 146.741 98.04 146.766 98.0739C146.791 98.1077 146.823 98.1362 146.859 98.1578C147.404 98.4978 147.942 98.8478 148.473 99.2078C148.525 99.2456 148.588 99.2665 148.652 99.2678ZM120.256 97.8178C120.299 97.828 120.343 97.828 120.386 97.8178C120.464 97.7827 120.526 97.718 120.558 97.6376C120.59 97.5572 120.589 97.4675 120.555 97.3878C120.306 96.8178 120.017 96.2178 119.688 95.6178C119.668 95.58 119.641 95.5465 119.608 95.5193C119.575 95.4922 119.537 95.472 119.496 95.4599C119.456 95.4478 119.413 95.444 119.37 95.4488C119.328 95.4536 119.287 95.4669 119.25 95.4878C119.176 95.53 119.121 95.5995 119.097 95.6815C119.072 95.7636 119.081 95.8519 119.12 95.9278C119.439 96.5078 119.728 97.0878 119.967 97.6478C119.991 97.7059 120.03 97.7558 120.082 97.7913C120.133 97.8269 120.194 97.8465 120.256 97.8478V97.8178ZM145.295 97.2678C145.354 97.2692 145.412 97.254 145.463 97.224C145.514 97.1939 145.556 97.1503 145.584 97.0978C145.623 97.0219 145.632 96.9336 145.607 96.8515C145.583 96.7694 145.528 96.7 145.454 96.6578C144.886 96.3478 144.298 96.0478 143.71 95.7578C143.672 95.7392 143.631 95.7282 143.589 95.7257C143.547 95.7231 143.505 95.729 143.465 95.743C143.425 95.7569 143.388 95.7787 143.357 95.807C143.326 95.8353 143.3 95.8696 143.282 95.9078C143.263 95.9459 143.252 95.9872 143.25 96.0295C143.247 96.0718 143.253 96.1142 143.267 96.1542C143.281 96.1942 143.303 96.231 143.331 96.2625C143.359 96.294 143.393 96.3197 143.431 96.3378C144.009 96.6178 144.587 96.9178 145.145 97.2278C145.19 97.255 145.242 97.2689 145.295 97.2678ZM110.342 97.0178C110.39 97.0172 110.437 97.0061 110.48 96.9854C110.523 96.9646 110.561 96.9348 110.592 96.8978C110.994 96.4249 111.449 95.9988 111.947 95.6278C111.982 95.604 112.012 95.573 112.035 95.5369C112.058 95.5008 112.073 95.4604 112.08 95.4182C112.086 95.3759 112.084 95.3327 112.073 95.2914C112.062 95.25 112.043 95.2113 112.016 95.1778C111.993 95.1423 111.962 95.1121 111.926 95.0892C111.89 95.0662 111.85 95.0509 111.807 95.0444C111.765 95.0378 111.722 95.04 111.681 95.051C111.64 95.0619 111.601 95.0812 111.568 95.1078C111.026 95.51 110.531 95.973 110.093 96.4878C110.037 96.5489 110.005 96.6293 110.005 96.7128C110.005 96.7963 110.037 96.8767 110.093 96.9378C110.137 96.9772 110.191 97.0044 110.249 97.0166C110.306 97.0289 110.366 97.0259 110.422 97.0078L110.342 97.0178ZM141.807 95.5678C141.871 95.5648 141.932 95.5447 141.984 95.5094C142.037 95.4742 142.079 95.4252 142.106 95.3678C142.123 95.3291 142.131 95.2875 142.132 95.2454C142.132 95.2033 142.124 95.1616 142.108 95.1226C142.093 95.0835 142.069 95.048 142.04 95.018C142.011 94.9881 141.976 94.9642 141.937 94.9478C141.329 94.6878 140.721 94.4478 140.114 94.2178C140.033 94.1884 139.944 94.1918 139.866 94.2273C139.788 94.2628 139.726 94.3276 139.695 94.4078C139.666 94.4901 139.671 94.5804 139.708 94.6591C139.746 94.7377 139.813 94.7984 139.894 94.8278C140.492 95.0478 141.09 95.2878 141.678 95.5378C141.734 95.5622 141.797 95.5692 141.857 95.5578L141.807 95.5678ZM113.421 94.6878C113.467 94.7024 113.515 94.7024 113.561 94.6878C114.131 94.4117 114.717 94.1679 115.314 93.9578C115.354 93.9443 115.391 93.923 115.423 93.895C115.455 93.867 115.481 93.8329 115.499 93.7947C115.518 93.7565 115.529 93.7151 115.531 93.6727C115.534 93.6303 115.528 93.5879 115.514 93.5478C115.5 93.5076 115.479 93.4704 115.451 93.4385C115.423 93.4066 115.389 93.3806 115.351 93.3619C115.313 93.3433 115.272 93.3325 115.229 93.3301C115.187 93.3277 115.145 93.3337 115.105 93.3478C114.48 93.5662 113.868 93.8199 113.272 94.1078C113.196 94.1483 113.139 94.217 113.113 94.2993C113.087 94.3815 113.094 94.4707 113.132 94.5478C113.169 94.6015 113.221 94.6426 113.281 94.6659C113.342 94.6891 113.408 94.6933 113.471 94.6778L113.421 94.6878ZM118.403 94.4178C118.464 94.4216 118.523 94.4039 118.572 94.3678C118.609 94.3464 118.64 94.3177 118.665 94.2836C118.69 94.2495 118.707 94.2106 118.717 94.1694C118.726 94.1282 118.727 94.0855 118.719 94.044C118.712 94.0024 118.696 93.9629 118.672 93.9278C118.513 93.6678 118.343 93.4178 118.174 93.1478L119.061 92.9678C119.144 92.9532 119.218 92.906 119.266 92.8366C119.315 92.7672 119.334 92.6813 119.32 92.5978C119.312 92.5554 119.297 92.515 119.274 92.4788C119.251 92.4426 119.221 92.4114 119.185 92.3871C119.15 92.3629 119.11 92.346 119.068 92.3376C119.026 92.3291 118.983 92.3292 118.941 92.3378C118.552 92.4078 118.164 92.4878 117.785 92.5778L117.586 92.2978C117.562 92.2627 117.531 92.2327 117.496 92.2096C117.46 92.1865 117.42 92.1707 117.379 92.1633C117.337 92.1558 117.294 92.1568 117.253 92.1662C117.211 92.1756 117.172 92.1931 117.138 92.2178C117.103 92.2418 117.073 92.2726 117.05 92.3084C117.027 92.3441 117.011 92.3841 117.004 92.426C116.996 92.4679 116.997 92.5109 117.006 92.5524C117.016 92.5939 117.033 92.6332 117.058 92.6678L117.108 92.7378H117.028C116.945 92.7613 116.874 92.8158 116.829 92.8902C116.785 92.9645 116.77 93.0531 116.789 93.1378C116.814 93.2194 116.869 93.2884 116.943 93.3311C117.017 93.3737 117.104 93.3868 117.187 93.3678L117.496 93.2978C117.725 93.6178 117.935 93.9478 118.134 94.2978C118.165 94.3354 118.205 94.365 118.25 94.3841C118.295 94.4032 118.344 94.4114 118.393 94.4078L118.403 94.4178ZM138.191 94.2078C138.259 94.2108 138.327 94.1907 138.383 94.1509C138.438 94.1111 138.48 94.0537 138.499 93.9878C138.525 93.9056 138.517 93.8167 138.478 93.7401C138.439 93.6635 138.371 93.6053 138.29 93.5778C137.672 93.3878 137.035 93.1978 136.407 93.0378C136.367 93.0258 136.324 93.0224 136.282 93.0276C136.24 93.0328 136.2 93.0466 136.163 93.0682C136.127 93.0898 136.095 93.1186 136.07 93.153C136.045 93.1873 136.028 93.2264 136.019 93.2678C136.008 93.3085 136.006 93.3509 136.011 93.3925C136.017 93.4342 136.031 93.4743 136.053 93.5105C136.074 93.5467 136.102 93.5784 136.136 93.6036C136.169 93.6289 136.207 93.6473 136.248 93.6578C136.865 93.8178 137.483 94.0078 138.101 94.1978L138.191 94.2078ZM134.444 93.2078C134.518 93.2088 134.59 93.1831 134.647 93.1354C134.704 93.0877 134.741 93.0211 134.753 92.9478C134.762 92.9064 134.762 92.8637 134.755 92.8222C134.747 92.7806 134.731 92.741 134.708 92.7057C134.684 92.6703 134.655 92.64 134.62 92.6163C134.585 92.5926 134.545 92.5761 134.504 92.5678C133.866 92.4278 133.219 92.3078 132.581 92.2078C132.498 92.1933 132.412 92.2125 132.343 92.2613C132.274 92.31 132.227 92.3843 132.212 92.4678C132.204 92.5101 132.204 92.5536 132.213 92.5957C132.223 92.6378 132.24 92.6776 132.266 92.7124C132.291 92.7472 132.323 92.7763 132.36 92.7979C132.398 92.8195 132.439 92.8331 132.481 92.8378C133.109 92.9478 133.747 93.0678 134.375 93.1978L134.444 93.2078ZM120.924 92.6578C121.551 92.5678 122.199 92.4978 122.837 92.4478C122.922 92.4402 123.001 92.3993 123.057 92.3339C123.113 92.2685 123.141 92.1838 123.136 92.0978C123.132 92.0557 123.12 92.0148 123.1 91.9774C123.081 91.94 123.054 91.9068 123.022 91.8799C122.989 91.8529 122.952 91.8327 122.911 91.8203C122.871 91.8079 122.829 91.8037 122.787 91.8078C122.139 91.8078 121.482 91.9278 120.794 92.0178C120.753 92.0227 120.712 92.036 120.676 92.0569C120.64 92.0779 120.608 92.1061 120.583 92.1398C120.557 92.1735 120.539 92.2119 120.529 92.2529C120.52 92.2938 120.518 92.3363 120.525 92.3778C120.529 92.4263 120.543 92.4734 120.568 92.5155C120.592 92.5575 120.626 92.5934 120.666 92.6204C120.707 92.6474 120.753 92.6648 120.801 92.6713C120.849 92.6778 120.898 92.6732 120.944 92.6578H120.924ZM130.608 92.5778C130.688 92.5782 130.765 92.5486 130.824 92.4949C130.883 92.4413 130.92 92.3674 130.927 92.2878C130.936 92.2044 130.911 92.1211 130.859 92.0556C130.807 91.9902 130.731 91.9479 130.648 91.9378C130.001 91.8578 129.343 91.7978 128.655 91.7578C128.614 91.7551 128.572 91.7607 128.532 91.7744C128.492 91.788 128.455 91.8093 128.424 91.8372C128.393 91.8651 128.367 91.8989 128.348 91.9368C128.33 91.9746 128.319 92.0158 128.317 92.0578C128.313 92.1002 128.317 92.1429 128.33 92.1833C128.343 92.2238 128.364 92.2611 128.393 92.293C128.421 92.3249 128.455 92.3507 128.493 92.3687C128.532 92.3867 128.573 92.3967 128.616 92.3978C129.253 92.4478 129.901 92.4978 130.529 92.5778H130.608ZM124.79 92.3378C125.437 92.3378 126.075 92.3378 126.723 92.3378C126.764 92.3392 126.805 92.3321 126.844 92.3172C126.882 92.3022 126.918 92.2796 126.947 92.2506C126.977 92.2217 127.001 92.1871 127.017 92.1488C127.033 92.1105 127.041 92.0694 127.041 92.0278C127.043 91.9858 127.036 91.9439 127.021 91.9046C127.006 91.8652 126.984 91.8292 126.955 91.7986C126.926 91.7679 126.892 91.7432 126.854 91.726C126.816 91.7087 126.774 91.6991 126.733 91.6978C126.075 91.6978 125.427 91.6978 124.74 91.6978C124.697 91.6991 124.655 91.709 124.616 91.7269C124.577 91.7448 124.542 91.7704 124.514 91.8021C124.485 91.8338 124.463 91.871 124.448 91.9115C124.434 91.952 124.428 91.995 124.431 92.0378C124.433 92.0837 124.445 92.1286 124.466 92.1695C124.487 92.2104 124.516 92.2463 124.552 92.2747C124.588 92.3032 124.629 92.3236 124.674 92.3344C124.718 92.3453 124.765 92.3465 124.81 92.3378H124.79ZM116.171 91.2278C116.244 91.2287 116.314 91.2039 116.37 91.1578C116.429 91.0979 116.463 91.0171 116.463 90.9328C116.463 90.8486 116.429 90.7677 116.37 90.7078C115.972 90.1878 115.553 89.7078 115.135 89.1778C115.075 89.1186 114.995 89.0854 114.911 89.0854C114.827 89.0854 114.746 89.1186 114.687 89.1778C114.627 89.2394 114.594 89.3219 114.594 89.4078C114.594 89.4937 114.627 89.5762 114.687 89.6378C115.095 90.1178 115.514 90.6378 115.902 91.1278C115.934 91.1747 115.977 91.2124 116.028 91.237C116.079 91.2616 116.135 91.2722 116.191 91.2678L116.171 91.2278ZM113.64 88.2278C113.681 88.228 113.721 88.2202 113.759 88.2047C113.797 88.1893 113.831 88.1666 113.86 88.1378C113.89 88.1089 113.914 88.074 113.931 88.0353C113.947 87.9966 113.956 87.9549 113.956 87.9128C113.956 87.8707 113.947 87.8291 113.931 87.7904C113.914 87.7517 113.89 87.7168 113.86 87.6878C113.411 87.2078 112.943 86.7478 112.465 86.3078C112.436 86.2773 112.401 86.2529 112.363 86.2363C112.324 86.2197 112.283 86.2111 112.241 86.2111C112.199 86.2111 112.157 86.2197 112.118 86.2363C112.08 86.2529 112.045 86.2773 112.016 86.3078C111.986 86.3377 111.961 86.3734 111.945 86.4129C111.928 86.4524 111.919 86.4949 111.919 86.5378C111.919 86.5807 111.928 86.6232 111.945 86.6627C111.961 86.7022 111.986 86.738 112.016 86.7678C112.485 87.1978 112.943 87.6578 113.391 88.1178C113.418 88.1657 113.457 88.2052 113.504 88.2318C113.552 88.2583 113.606 88.2708 113.66 88.2678L113.64 88.2278ZM110.801 85.5778C110.895 85.5754 110.984 85.5359 111.05 85.4678C111.11 85.4062 111.143 85.3237 111.143 85.2378C111.143 85.1519 111.11 85.0694 111.05 85.0078C110.542 84.5878 110.054 84.1878 109.496 83.8078C109.461 83.7831 109.422 83.7656 109.381 83.7562C109.339 83.7468 109.296 83.7458 109.255 83.7533C109.213 83.7607 109.173 83.7765 109.137 83.7996C109.102 83.8227 109.071 83.8527 109.047 83.8878C109.022 83.9219 109.004 83.9606 108.994 84.0017C108.984 84.0428 108.982 84.0856 108.988 84.1274C108.995 84.1693 109.01 84.2095 109.032 84.2456C109.054 84.2817 109.083 84.3131 109.117 84.3378C109.635 84.7112 110.143 85.1011 110.641 85.5078C110.686 85.5644 110.75 85.6033 110.821 85.6178L110.801 85.5778ZM107.642 83.3178C107.696 83.3176 107.749 83.3038 107.796 83.2776C107.843 83.2513 107.883 83.2136 107.911 83.1678C107.957 83.0946 107.971 83.0065 107.953 82.9225C107.934 82.8384 107.884 82.765 107.812 82.7178C107.254 82.3778 106.676 82.0478 106.098 81.7178C106.021 81.679 105.932 81.6719 105.85 81.6981C105.768 81.7242 105.7 81.7816 105.66 81.8578C105.621 81.9334 105.615 82.0212 105.641 82.1018C105.667 82.1824 105.724 82.2493 105.799 82.2878C106.367 82.5878 106.925 82.9078 107.473 83.2878C107.498 83.3116 107.528 83.33 107.561 83.3421C107.593 83.3541 107.628 83.3595 107.662 83.3578L107.642 83.3178ZM104.195 81.5178C104.258 81.5193 104.32 81.5021 104.373 81.4683C104.426 81.4344 104.468 81.3856 104.494 81.3278C104.51 81.2891 104.519 81.2475 104.519 81.2054C104.52 81.1633 104.512 81.1216 104.496 81.0826C104.48 81.0435 104.457 81.008 104.428 80.978C104.398 80.948 104.363 80.9242 104.325 80.9078C103.727 80.6478 103.109 80.4078 102.491 80.1878C102.451 80.1737 102.409 80.1677 102.367 80.1701C102.325 80.1725 102.283 80.1833 102.245 80.2019C102.207 80.2205 102.173 80.2466 102.145 80.2785C102.117 80.3104 102.096 80.3476 102.083 80.3878C102.069 80.4278 102.063 80.4703 102.065 80.5127C102.067 80.5551 102.078 80.5965 102.097 80.6347C102.115 80.6729 102.141 80.707 102.173 80.735C102.205 80.763 102.242 80.7843 102.282 80.7978C102.88 81.0078 103.488 81.2478 104.065 81.4978C104.109 81.5303 104.161 81.551 104.215 81.5578L104.195 81.5178ZM79.3857 80.7178H79.4555L81.3486 80.3178C81.3908 80.3106 81.4311 80.295 81.4672 80.2719C81.5032 80.2487 81.5343 80.2185 81.5585 80.183C81.5826 80.1476 81.5994 80.1076 81.6079 80.0654C81.6163 80.0233 81.6163 79.9799 81.6077 79.9378C81.5885 79.8554 81.5386 79.7834 81.4681 79.7369C81.3976 79.6904 81.312 79.6728 81.229 79.6878C80.5914 79.8078 79.9537 79.9478 79.316 80.0878C79.2339 80.107 79.1622 80.1571 79.1159 80.2279C79.0695 80.2986 79.052 80.3845 79.067 80.4678C79.079 80.5491 79.1199 80.6232 79.1822 80.6765C79.2445 80.7298 79.3238 80.7587 79.4057 80.7578L79.3857 80.7178ZM100.528 80.2378C100.601 80.2401 100.672 80.2176 100.73 80.174C100.788 80.1304 100.829 80.0682 100.847 79.9978C100.858 79.9571 100.86 79.9147 100.854 79.8731C100.848 79.8314 100.834 79.7914 100.813 79.7552C100.792 79.7189 100.764 79.6873 100.73 79.662C100.697 79.6367 100.659 79.6183 100.618 79.6078C99.9903 79.4378 99.3527 79.2778 98.7051 79.1478C98.6206 79.1331 98.5339 79.152 98.4632 79.2006C98.3924 79.2492 98.3434 79.3235 98.3264 79.4078C98.3115 79.4912 98.329 79.577 98.3753 79.6478C98.4217 79.7185 98.4934 79.7686 98.5755 79.7878C99.2132 79.9078 99.8409 80.0578 100.449 80.2278L100.528 80.2378ZM83.1918 79.9578H83.2516C83.9158 79.8445 84.5535 79.7445 85.1646 79.6578C85.2485 79.6431 85.3233 79.5963 85.3735 79.5273C85.4236 79.4583 85.4452 79.3724 85.4336 79.2878C85.4288 79.246 85.4156 79.2056 85.3947 79.1691C85.3738 79.1325 85.3457 79.1007 85.3121 79.0754C85.2785 79.0501 85.2402 79.032 85.1994 79.0221C85.1586 79.0122 85.1163 79.0108 85.0749 79.0178C84.4273 79.1078 83.7896 79.2078 83.142 79.3178C83.0588 79.3325 82.9848 79.3797 82.9362 79.449C82.8877 79.5184 82.8685 79.6043 82.8829 79.6878C82.8829 79.7303 82.8915 79.7723 82.9082 79.8112C82.925 79.8502 82.9495 79.8853 82.9804 79.9144C83.0112 79.9435 83.0477 79.9659 83.0875 79.9802C83.1273 79.9946 83.1696 80.0006 83.2118 79.9978L83.1918 79.9578ZM96.7323 79.4678C96.8098 79.4664 96.8843 79.4375 96.9426 79.3862C97.001 79.335 97.0394 79.2647 97.0511 79.1878C97.0567 79.1458 97.0539 79.103 97.0428 79.062C97.0318 79.021 97.0127 78.9827 96.9867 78.9492C96.9608 78.9157 96.9284 78.8877 96.8916 78.8669C96.8547 78.846 96.8141 78.8328 96.7721 78.8278C96.1345 78.7378 95.4769 78.6678 94.7794 78.6178C94.7381 78.6137 94.6963 78.618 94.6566 78.6305C94.617 78.643 94.5802 78.6634 94.5486 78.6905C94.5169 78.7175 94.491 78.7507 94.4725 78.7881C94.454 78.8254 94.4432 78.8662 94.4407 78.9078C94.4366 78.9499 94.4408 78.9923 94.4531 79.0327C94.4654 79.0732 94.4856 79.1107 94.5125 79.1432C94.5393 79.1758 94.5724 79.2027 94.6096 79.2224C94.6469 79.242 94.6877 79.2541 94.7296 79.2578C95.3773 79.3078 96.0249 79.3778 96.6426 79.4678H96.7323ZM87.0378 79.4178C87.6755 79.3478 88.3231 79.2978 88.9607 79.2478C89.0026 79.2453 89.0436 79.2345 89.0813 79.216C89.1191 79.1975 89.1528 79.1717 89.1805 79.1401C89.2083 79.1085 89.2296 79.0718 89.2432 79.0319C89.2567 78.992 89.2623 78.9499 89.2596 78.9078C89.2572 78.8649 89.2461 78.8228 89.2271 78.7843C89.208 78.7457 89.1814 78.7114 89.1488 78.6834C89.1163 78.6554 89.0784 78.6343 89.0376 78.6213C88.9967 78.6083 88.9536 78.6037 88.9109 78.6078C88.2633 78.6078 87.6156 78.7078 86.9182 78.7778C86.8762 78.7816 86.8355 78.7936 86.7982 78.8133C86.7609 78.833 86.7279 78.8599 86.7011 78.8924C86.6742 78.9249 86.654 78.9625 86.6417 79.0029C86.6294 79.0433 86.6251 79.0858 86.6293 79.1278C86.6242 79.1817 86.6329 79.2361 86.6544 79.2857C86.676 79.3354 86.7098 79.3787 86.7526 79.4117C86.7954 79.4447 86.8458 79.4662 86.8992 79.4743C86.9526 79.4823 87.0071 79.4767 87.0577 79.4578L87.0378 79.4178ZM92.8565 79.1578C92.9403 79.158 93.0211 79.126 93.0822 79.0683C93.1433 79.0107 93.1802 78.9318 93.1853 78.8478C93.1866 78.805 93.1794 78.7623 93.1639 78.7223C93.1485 78.6823 93.1252 78.6458 93.0955 78.6151C93.0657 78.5843 93.0302 78.5598 92.9908 78.5431C92.9515 78.5264 92.9092 78.5178 92.8664 78.5178C92.2188 78.5178 91.5612 78.5178 90.8737 78.5178C90.831 78.5178 90.7887 78.5264 90.7494 78.5431C90.71 78.5598 90.6744 78.5843 90.6447 78.6151C90.6149 78.6458 90.5917 78.6823 90.5762 78.7223C90.5608 78.7623 90.5536 78.805 90.5549 78.8478C90.5575 78.9309 90.5922 79.0098 90.6517 79.0677C90.7112 79.1255 90.7909 79.1579 90.8737 79.1578H92.8166H92.8565Z" fill="#999999"/>
<path d="M43.0784 27.1283L40.2688 28.3483L29.0398 20.4883L26.0508 22.1483C23.6496 23.5883 21.3181 23.6883 20.2022 23.0483L19.973 23.1583C18.2393 23.9183 17.2131 23.2383 16.8644 22.4183C16.5156 21.5983 16.7149 20.4183 18.4486 19.6383L18.6777 19.5383C18.887 18.5383 19.7937 16.8583 23.3307 15.8683L26.5888 14.8183L28.5815 1.22827L31.3912 -0.00170898L33.5732 12.5883L41.6038 9.82828L42.8194 6.59827L45.0513 5.76828L45.2106 8.76828L46.0077 8.69827L46.7351 10.3683L46.1372 10.9583L48.2495 13.1583L46.1174 14.2283L42.949 12.9083L35.4464 16.9083L43.0784 27.1283ZM42.8692 12.1783L46.0576 13.5083L47.0539 12.9883L45.121 10.9883L45.8483 10.2483L45.5095 9.45828L44.5132 9.54828L44.3638 6.74829L43.2777 7.14828L42.0622 10.3883L32.9754 13.4983L30.8133 0.988281L29.1295 1.71829L27.1866 15.3583L23.5101 16.5383C20.0826 17.4883 19.4051 19.0283 19.3054 19.8583V20.0683L19.1062 20.1383C18.9796 20.1745 18.8562 20.2213 18.7375 20.2783C17.6714 20.7383 17.1932 21.4683 17.502 22.1683C17.8109 22.8683 18.6578 23.0283 19.7239 22.5583C19.8438 22.5097 19.9604 22.4528 20.0726 22.3883L20.262 22.2783L20.4413 22.4083C21.1686 22.9483 23.2909 23.0483 25.7419 21.5883L29.0896 19.7083L40.3484 27.5983L42.0323 26.8683L34.4002 16.7283L42.8692 12.1783Z" fill="#999999"/>
<path d="M139.506 111.058C139.56 111.059 139.613 111.045 139.66 111.019C139.707 110.993 139.747 110.954 139.775 110.908C140.133 110.361 140.465 109.811 140.771 109.258C140.816 109.185 140.831 109.097 140.812 109.012C140.794 108.928 140.743 108.855 140.671 108.808C140.597 108.763 140.508 108.75 140.425 108.771C140.341 108.791 140.268 108.844 140.223 108.918C139.884 109.468 139.545 110.008 139.227 110.558C139.202 110.593 139.186 110.633 139.177 110.675C139.168 110.717 139.168 110.76 139.177 110.802C139.185 110.844 139.202 110.884 139.226 110.919C139.25 110.954 139.28 110.985 139.316 111.008C139.374 111.04 139.439 111.057 139.506 111.058ZM141.498 107.738C141.555 107.737 141.61 107.722 141.659 107.694C141.707 107.666 141.748 107.626 141.777 107.578C142.096 107.008 142.415 106.438 142.774 105.868C142.814 105.793 142.824 105.706 142.802 105.624C142.779 105.542 142.727 105.472 142.654 105.428C142.578 105.388 142.49 105.38 142.409 105.404C142.327 105.428 142.258 105.483 142.216 105.558C141.907 106.128 141.588 106.688 141.269 107.248C141.225 107.322 141.212 107.411 141.232 107.495C141.253 107.58 141.305 107.652 141.379 107.698C141.431 107.726 141.489 107.74 141.548 107.738H141.498ZM143.351 104.318C143.411 104.317 143.47 104.3 143.521 104.268C143.572 104.237 143.613 104.191 143.64 104.138C143.939 103.558 144.228 102.968 144.507 102.388C144.526 102.35 144.537 102.308 144.539 102.266C144.542 102.224 144.536 102.181 144.522 102.141C144.508 102.101 144.486 102.065 144.458 102.033C144.43 102.002 144.396 101.976 144.358 101.958C144.32 101.939 144.279 101.928 144.237 101.926C144.194 101.923 144.152 101.929 144.112 101.943C144.072 101.957 144.036 101.979 144.004 102.007C143.973 102.035 143.947 102.07 143.929 102.108C143.65 102.688 143.361 103.268 143.063 103.848C143.044 103.886 143.033 103.927 143.03 103.969C143.028 104.012 143.034 104.054 143.048 104.094C143.062 104.134 143.083 104.171 143.111 104.203C143.14 104.234 143.174 104.26 143.212 104.278C143.239 104.298 143.269 104.312 143.302 104.319C143.335 104.326 143.369 104.325 143.401 104.318H143.351ZM145.035 100.798C145.098 100.797 145.159 100.779 145.211 100.745C145.264 100.712 145.307 100.664 145.334 100.608L146.111 98.8178C146.144 98.7369 146.144 98.6462 146.11 98.5656C146.077 98.485 146.013 98.4211 145.932 98.3878C145.853 98.3578 145.765 98.3598 145.687 98.3934C145.609 98.4269 145.547 98.4894 145.514 98.5678C145.264 99.1578 145.005 99.7478 144.746 100.348C144.728 100.386 144.718 100.427 144.716 100.469C144.715 100.511 144.721 100.553 144.736 100.592C144.751 100.631 144.774 100.667 144.803 100.697C144.832 100.728 144.867 100.752 144.906 100.768C144.961 100.796 145.024 100.806 145.085 100.798H145.035ZM146.54 97.2078C146.604 97.2072 146.666 97.1879 146.719 97.1524C146.772 97.1169 146.814 97.0667 146.839 97.0078C147.078 96.3878 147.307 95.7778 147.536 95.1678C147.55 95.1278 147.556 95.0853 147.554 95.043C147.551 95.0006 147.541 94.9591 147.522 94.9209C147.504 94.8828 147.478 94.8487 147.446 94.8207C147.414 94.7927 147.377 94.7713 147.337 94.7578C147.257 94.7314 147.171 94.7363 147.095 94.7716C147.019 94.8069 146.96 94.8699 146.928 94.9478C146.709 95.5578 146.48 96.1578 146.241 96.7678C146.211 96.8475 146.213 96.9357 146.246 97.014C146.28 97.0923 146.342 97.1546 146.42 97.1878L146.54 97.2078ZM147.875 93.5478C147.941 93.547 148.006 93.5253 148.06 93.4859C148.113 93.4465 148.153 93.3912 148.174 93.3278C148.393 92.7078 148.592 92.0878 148.782 91.4678C148.807 91.3856 148.799 91.2967 148.76 91.2201C148.721 91.1435 148.654 91.0853 148.572 91.0578C148.49 91.0325 148.402 91.0402 148.326 91.0795C148.249 91.1187 148.191 91.1863 148.164 91.2678C147.975 91.8878 147.775 92.4978 147.566 93.1178C147.541 93.2001 147.549 93.2889 147.588 93.3655C147.627 93.4421 147.694 93.5004 147.775 93.5278L147.875 93.5478ZM149.031 89.8278C149.101 89.8262 149.169 89.802 149.224 89.7589C149.28 89.7157 149.32 89.6557 149.34 89.5878C149.519 88.9578 149.698 88.3278 149.858 87.7078C149.879 87.6243 149.867 87.5357 149.824 87.4609C149.781 87.3862 149.711 87.3312 149.628 87.3078C149.588 87.2973 149.546 87.2949 149.504 87.3008C149.463 87.3066 149.423 87.3206 149.387 87.342C149.351 87.3634 149.319 87.3916 149.294 87.4252C149.269 87.4588 149.25 87.4971 149.24 87.5378C149.071 88.1578 148.901 88.7878 148.722 89.4078C148.71 89.4485 148.706 89.4912 148.71 89.5335C148.715 89.5758 148.727 89.6167 148.748 89.6539C148.768 89.6912 148.796 89.724 148.829 89.7504C148.862 89.7768 148.9 89.7963 148.941 89.8078L149.031 89.8278ZM150.027 86.0578C150.099 86.0556 150.168 86.03 150.223 85.9849C150.279 85.9397 150.319 85.8776 150.336 85.8078C150.485 85.1678 150.635 84.5278 150.764 83.8978C150.775 83.8571 150.777 83.8146 150.77 83.7731C150.763 83.7316 150.748 83.6919 150.726 83.6563C150.704 83.6208 150.674 83.5902 150.64 83.5664C150.605 83.5425 150.566 83.526 150.525 83.5178C150.484 83.5074 150.441 83.5054 150.399 83.5119C150.357 83.5184 150.317 83.5333 150.281 83.5557C150.244 83.578 150.213 83.6075 150.188 83.6422C150.164 83.6769 150.146 83.7162 150.137 83.7578C150.007 84.3878 149.858 85.0178 149.708 85.6578C149.69 85.7412 149.705 85.8285 149.749 85.9012C149.794 85.974 149.865 86.0265 149.947 86.0478L150.027 86.0578ZM150.844 82.2378C150.919 82.2392 150.992 82.2138 151.051 82.1662C151.109 82.1187 151.149 82.0519 151.163 81.9778C151.282 81.3378 151.402 80.6978 151.512 80.0578C151.526 79.9743 151.507 79.8884 151.458 79.819C151.41 79.7497 151.336 79.7025 151.253 79.6878C151.211 79.6792 151.167 79.6791 151.125 79.6875C151.083 79.696 151.044 79.7129 151.008 79.7372C150.973 79.7614 150.943 79.7926 150.92 79.8288C150.897 79.865 150.881 79.9054 150.874 79.9478C150.764 80.5778 150.655 81.2178 150.525 81.8578C150.517 81.8999 150.516 81.9433 150.525 81.9854C150.533 82.0276 150.55 82.0676 150.574 82.103C150.599 82.1385 150.63 82.1687 150.666 82.1918C150.702 82.215 150.742 82.2307 150.784 82.2378H150.844ZM151.502 78.3978C151.579 78.401 151.654 78.375 151.713 78.325C151.772 78.275 151.811 78.2047 151.82 78.1278C151.92 77.4778 152.01 76.8278 152.089 76.1878C152.095 76.1457 152.092 76.103 152.081 76.062C152.07 76.021 152.051 75.9827 152.025 75.9492C151.999 75.9157 151.967 75.8877 151.93 75.8669C151.893 75.846 151.852 75.8328 151.81 75.8278C151.768 75.8208 151.725 75.8225 151.684 75.8331C151.642 75.8436 151.604 75.8626 151.57 75.8889C151.536 75.9152 151.508 75.9482 151.488 75.9859C151.468 76.0236 151.455 76.0651 151.452 76.1078C151.372 76.7345 151.282 77.3745 151.183 78.0278C151.171 78.1124 151.193 78.1983 151.243 78.2673C151.293 78.3363 151.368 78.3831 151.452 78.3978H151.502ZM151.99 74.5278C152.07 74.5306 152.148 74.5018 152.208 74.4477C152.267 74.3936 152.304 74.3183 152.309 74.2378C152.378 73.5878 152.448 72.9378 152.498 72.2978C152.504 72.2119 152.475 72.1272 152.42 72.0618C152.364 71.9964 152.285 71.9555 152.199 71.9478C152.157 71.9422 152.115 71.9454 152.075 71.9573C152.034 71.9692 151.997 71.9895 151.965 72.0169C151.933 72.0442 151.907 72.0781 151.889 72.1161C151.871 72.1542 151.861 72.1957 151.86 72.2378C151.801 72.8778 151.741 73.5278 151.671 74.1778C151.667 74.2199 151.671 74.2623 151.683 74.3027C151.696 74.3432 151.716 74.3807 151.743 74.4133C151.77 74.4458 151.803 74.4727 151.84 74.4923C151.877 74.512 151.918 74.5241 151.96 74.5278H151.99ZM152.319 70.6478C152.4 70.648 152.478 70.617 152.537 70.5613C152.597 70.5055 152.632 70.4292 152.637 70.3478C152.637 69.6778 152.717 69.0278 152.737 68.3478C152.74 68.305 152.734 68.262 152.72 68.2215C152.706 68.181 152.683 68.1438 152.655 68.1121C152.626 68.0804 152.591 68.0548 152.552 68.0369C152.513 68.019 152.471 68.0091 152.428 68.0078C152.345 68.0117 152.265 68.0448 152.203 68.1014C152.141 68.158 152.101 68.2346 152.089 68.3178C152.089 68.9578 152.089 69.6078 152 70.2578C151.994 70.3438 152.022 70.4285 152.078 70.4939C152.134 70.5593 152.213 70.6002 152.299 70.6078L152.319 70.6478ZM152.468 66.7478C152.553 66.7478 152.634 66.7141 152.694 66.6541C152.753 66.5941 152.787 66.5127 152.787 66.4278C152.787 65.9678 152.787 65.5178 152.787 65.0678V64.4778C152.787 64.393 152.753 64.3116 152.694 64.2515C152.634 64.1915 152.553 64.1578 152.468 64.1578C152.384 64.1578 152.302 64.1915 152.243 64.2515C152.183 64.3116 152.149 64.393 152.149 64.4778V65.0678C152.149 65.5178 152.149 65.9678 152.149 66.4178C152.148 66.4607 152.155 66.5034 152.171 66.5434C152.186 66.5833 152.209 66.6198 152.239 66.6506C152.269 66.6814 152.304 66.7058 152.344 66.7225C152.383 66.7393 152.425 66.7478 152.468 66.7478ZM152.468 62.8478C152.511 62.8478 152.553 62.8392 152.592 62.8225C152.632 62.8058 152.667 62.7814 152.697 62.7506C152.727 62.7198 152.75 62.6833 152.766 62.6434C152.781 62.6034 152.788 62.5607 152.787 62.5178C152.787 61.8478 152.727 61.1978 152.697 60.5178C152.69 60.432 152.649 60.3526 152.584 60.2966C152.519 60.2405 152.434 60.2123 152.349 60.2178C152.307 60.2204 152.266 60.2312 152.228 60.2497C152.19 60.2682 152.156 60.2939 152.129 60.3255C152.101 60.3571 152.08 60.3939 152.066 60.4338C152.053 60.4736 152.047 60.5158 152.05 60.5578C152.05 61.1878 152.119 61.8378 152.139 62.4978C152.135 62.5449 152.14 62.5925 152.156 62.6371C152.172 62.6817 152.198 62.7222 152.231 62.7557C152.264 62.7891 152.305 62.8148 152.349 62.8307C152.394 62.8466 152.441 62.8525 152.488 62.8478H152.468ZM152.239 58.9578C152.281 58.9541 152.322 58.942 152.359 58.9223C152.396 58.9027 152.429 58.8758 152.456 58.8433C152.483 58.8107 152.503 58.7732 152.515 58.7327C152.528 58.6923 152.532 58.6499 152.528 58.6078C152.468 57.9412 152.398 57.2745 152.319 56.6078C152.315 56.5651 152.303 56.5236 152.282 56.4859C152.262 56.4482 152.234 56.4152 152.2 56.3889C152.167 56.3626 152.128 56.3436 152.087 56.3331C152.045 56.3225 152.002 56.3208 151.96 56.3278C151.876 56.3403 151.8 56.3846 151.749 56.4517C151.697 56.5187 151.672 56.6033 151.681 56.6878C151.761 57.2978 151.83 57.9478 151.89 58.6178C151.886 58.667 151.894 58.7165 151.912 58.7624C151.93 58.8083 151.959 58.8492 151.995 58.8822C152.032 58.9151 152.076 58.9391 152.123 58.9522C152.171 58.9653 152.221 58.9672 152.269 58.9578H152.239ZM151.761 55.0878C151.844 55.0732 151.918 55.026 151.966 54.9566C152.015 54.8872 152.034 54.8014 152.02 54.7178L151.96 54.3278C151.87 53.8178 151.771 53.3278 151.671 52.7878C151.663 52.7464 151.646 52.707 151.623 52.6719C151.599 52.6368 151.569 52.6068 151.534 52.5836C151.498 52.5603 151.459 52.5443 151.418 52.5364C151.376 52.5286 151.334 52.5291 151.292 52.5378C151.25 52.5448 151.21 52.5605 151.175 52.5838C151.139 52.6071 151.109 52.6375 151.085 52.6732C151.062 52.7089 151.046 52.749 151.039 52.7911C151.032 52.8332 151.033 52.8764 151.043 52.9178C151.143 53.4278 151.233 53.9178 151.322 54.4378L151.392 54.8178C151.396 54.8628 151.41 54.9063 151.433 54.9453C151.456 54.9843 151.487 55.0179 151.524 55.0436C151.561 55.0693 151.603 55.0866 151.647 55.0942C151.692 55.1019 151.737 55.0997 151.781 55.0878H151.761ZM150.993 51.2678H151.063C151.104 51.2596 151.143 51.2431 151.178 51.2193C151.212 51.1955 151.242 51.1649 151.264 51.1293C151.286 51.0938 151.301 51.054 151.308 51.0125C151.315 50.971 151.313 50.9286 151.302 50.8878C151.153 50.2478 151.003 49.6178 150.834 48.9778C150.823 48.9369 150.803 48.8987 150.777 48.8654C150.751 48.8321 150.718 48.8044 150.681 48.784C150.644 48.7635 150.603 48.7506 150.561 48.7461C150.519 48.7416 150.476 48.7456 150.436 48.7578C150.395 48.7683 150.357 48.7867 150.323 48.812C150.29 48.8373 150.262 48.8689 150.24 48.9052C150.219 48.9414 150.205 48.9814 150.199 49.0231C150.193 49.0647 150.196 49.1071 150.206 49.1478C150.376 49.7778 150.535 50.3978 150.675 51.0278C150.695 51.1008 150.74 51.1645 150.802 51.2082C150.863 51.2519 150.938 51.2729 151.013 51.2678H150.993ZM149.997 47.5078H150.087C150.128 47.4963 150.166 47.4768 150.199 47.4504C150.232 47.424 150.26 47.3912 150.28 47.354C150.3 47.3167 150.313 47.2758 150.318 47.2335C150.322 47.1913 150.318 47.1485 150.306 47.1078C150.117 46.4778 149.917 45.8578 149.708 45.2378C149.695 45.1976 149.673 45.1604 149.646 45.1285C149.618 45.0966 149.584 45.0706 149.546 45.0519C149.508 45.0333 149.466 45.0225 149.424 45.0201C149.382 45.0176 149.34 45.0237 149.3 45.0378C149.26 45.0513 149.223 45.0727 149.191 45.1007C149.159 45.1287 149.133 45.1628 149.114 45.2009C149.096 45.2391 149.085 45.2806 149.083 45.323C149.08 45.3653 149.086 45.4078 149.1 45.4478C149.31 46.0578 149.499 46.6778 149.688 47.2978C149.712 47.3626 149.756 47.4181 149.813 47.4559C149.87 47.4938 149.938 47.512 150.007 47.5078H149.997ZM148.752 43.8078C148.788 43.8171 148.825 43.8171 148.861 43.8078C148.941 43.7785 149.005 43.7189 149.04 43.6421C149.076 43.5652 149.08 43.4774 149.051 43.3978C148.821 42.7878 148.582 42.1778 148.323 41.5778C148.308 41.5382 148.285 41.502 148.255 41.4714C148.226 41.4408 148.191 41.4164 148.152 41.3996C148.113 41.3829 148.071 41.3741 148.028 41.3738C147.986 41.3735 147.944 41.3816 147.905 41.3978C147.866 41.4142 147.831 41.4381 147.802 41.468C147.772 41.498 147.749 41.5335 147.733 41.5726C147.718 41.6116 147.71 41.6533 147.71 41.6954C147.71 41.7375 147.719 41.7791 147.735 41.8178C147.985 42.4178 148.224 43.0178 148.443 43.6278C148.472 43.6861 148.518 43.7344 148.575 43.7664C148.632 43.7985 148.697 43.8129 148.762 43.8078H148.752ZM147.287 40.2678C147.333 40.2773 147.381 40.2773 147.427 40.2678C147.504 40.2309 147.563 40.1654 147.593 40.0852C147.623 40.0049 147.62 39.9163 147.586 39.8378C147.307 39.2478 147.028 38.6578 146.729 38.0678C146.689 37.9941 146.622 37.9386 146.543 37.9126C146.463 37.8866 146.376 37.892 146.301 37.9278C146.223 37.9665 146.164 38.0345 146.136 38.1169C146.108 38.1993 146.113 38.2895 146.151 38.3678C146.45 38.9378 146.729 39.5178 146.998 40.1078C147.026 40.1592 147.068 40.2015 147.12 40.2298C147.171 40.2581 147.229 40.2713 147.287 40.2678ZM145.533 36.7878C145.582 36.8015 145.634 36.8015 145.683 36.7878C145.721 36.7679 145.754 36.7406 145.781 36.7076C145.808 36.6745 145.828 36.6363 145.84 36.5953C145.852 36.5543 145.856 36.5112 145.851 36.4687C145.847 36.4262 145.833 36.3851 145.812 36.3478C145.494 35.7778 145.165 35.2078 144.816 34.6578C144.796 34.6206 144.768 34.588 144.734 34.5621C144.7 34.5361 144.662 34.5174 144.621 34.5071C144.58 34.4968 144.537 34.4951 144.495 34.5021C144.453 34.5091 144.413 34.5247 144.378 34.5478C144.342 34.5694 144.31 34.598 144.285 34.6318C144.26 34.6656 144.242 34.7041 144.232 34.745C144.222 34.7858 144.22 34.8284 144.226 34.87C144.232 34.9117 144.246 34.9517 144.268 34.9878C144.607 35.5378 144.926 36.0978 145.264 36.6678C145.297 36.6955 145.336 36.716 145.377 36.7281C145.418 36.7401 145.461 36.7435 145.504 36.7378L145.533 36.7878ZM143.541 33.4578C143.599 33.4756 143.662 33.4756 143.72 33.4578C143.756 33.4346 143.787 33.4044 143.811 33.369C143.835 33.3336 143.851 33.2938 143.86 33.2518C143.868 33.2099 143.868 33.1667 143.859 33.1248C143.851 33.0828 143.834 33.0431 143.81 33.0078C143.441 32.4678 143.072 31.9278 142.684 31.3978C142.632 31.3306 142.557 31.2858 142.474 31.2728C142.39 31.2597 142.305 31.2794 142.236 31.3278C142.169 31.3795 142.124 31.455 142.111 31.5388C142.098 31.6226 142.118 31.7082 142.166 31.7778C142.544 32.2978 142.913 32.8278 143.272 33.3678C143.335 33.4048 143.409 33.419 143.481 33.4078L143.541 33.4578ZM99.7012 31.2478H100.11C100.152 31.2453 100.193 31.2345 100.23 31.216C100.268 31.1975 100.302 31.1717 100.329 31.1401C100.357 31.1085 100.379 31.0718 100.392 31.0319C100.406 30.992 100.411 30.9499 100.409 30.9078C100.407 30.8653 100.398 30.8235 100.38 30.785C100.362 30.7465 100.336 30.712 100.304 30.6839C100.272 30.6558 100.235 30.6345 100.195 30.6214C100.155 30.6083 100.112 30.6037 100.07 30.6078C99.6887 30.6429 99.3052 30.6429 98.9241 30.6078C98.6957 30.579 98.4694 30.5356 98.2465 30.4778C98.1633 30.4563 98.075 30.4683 98.0006 30.5113C97.9261 30.5543 97.8713 30.6248 97.848 30.7078C97.8376 30.7492 97.8357 30.7923 97.8421 30.8344C97.8486 30.8766 97.8634 30.917 97.8857 30.9534C97.908 30.9897 97.9373 31.0212 97.9719 31.046C98.0064 31.0708 98.0456 31.0884 98.0871 31.0978C98.3385 31.1679 98.5951 31.2181 98.8543 31.2478C99.1007 31.2429 99.3468 31.2263 99.5916 31.1978L99.7012 31.2478ZM101.993 30.8578H102.092C102.74 30.6297 103.343 30.2914 103.876 29.8578C103.936 29.7962 103.969 29.7137 103.969 29.6278C103.969 29.5419 103.936 29.4594 103.876 29.3978C103.846 29.367 103.811 29.3425 103.771 29.3257C103.732 29.3089 103.69 29.3003 103.647 29.3003C103.604 29.3003 103.562 29.3089 103.522 29.3257C103.483 29.3425 103.447 29.367 103.418 29.3978C102.942 29.7795 102.406 30.0801 101.833 30.2878C101.793 30.3013 101.756 30.3227 101.724 30.3507C101.693 30.3787 101.667 30.4128 101.648 30.4509C101.63 30.4891 101.619 30.5306 101.616 30.573C101.614 30.6153 101.62 30.6578 101.634 30.6978C101.665 30.7329 101.704 30.7609 101.747 30.7799C101.79 30.7989 101.836 30.8084 101.883 30.8078L101.993 30.8578ZM141.299 30.3178C141.372 30.3187 141.442 30.2939 141.498 30.2478C141.558 30.1862 141.591 30.1037 141.591 30.0178C141.591 29.9319 141.558 29.8494 141.498 29.7878C141.09 29.2778 140.661 28.7878 140.243 28.2878C140.181 28.228 140.099 28.1945 140.014 28.1945C139.928 28.1945 139.846 28.228 139.784 28.2878C139.725 28.3494 139.692 28.4319 139.692 28.5178C139.692 28.6037 139.725 28.6862 139.784 28.7478C140.203 29.2278 140.621 29.7478 141.02 30.2278C141.072 30.2557 141.13 30.2695 141.189 30.2678L141.299 30.3178ZM96.4033 30.2678C96.4557 30.2663 96.5071 30.2529 96.5537 30.2287C96.6003 30.2044 96.6408 30.17 96.6723 30.1278C96.7175 30.0546 96.7323 29.9665 96.7137 29.8825C96.6951 29.7984 96.6444 29.7249 96.5726 29.6778C96.0587 29.3352 95.5929 28.9249 95.1877 28.4578C95.128 28.3986 95.0475 28.3654 94.9635 28.3654C94.8796 28.3654 94.799 28.3986 94.7394 28.4578C94.6797 28.5194 94.6463 28.6019 94.6463 28.6878C94.6463 28.7737 94.6797 28.8562 94.7394 28.9178C95.1813 29.4351 95.6946 29.8863 96.2637 30.2578C96.2735 30.2617 96.2835 30.2651 96.2937 30.2678H96.4033ZM104.902 28.4178C104.959 28.4163 105.015 28.3998 105.064 28.37C105.113 28.3402 105.153 28.2981 105.181 28.2478C105.51 27.6251 105.723 26.9473 105.809 26.2478C105.814 26.2058 105.812 26.163 105.801 26.122C105.79 26.081 105.77 26.0427 105.744 26.0092C105.718 25.9757 105.686 25.9477 105.649 25.9269C105.612 25.906 105.572 25.8928 105.53 25.8878C105.447 25.8764 105.362 25.8983 105.295 25.9489C105.228 25.9994 105.183 26.0745 105.171 26.1578C105.089 26.7649 104.903 27.3534 104.623 27.8978C104.602 27.9351 104.589 27.9762 104.584 28.0187C104.58 28.0612 104.583 28.1043 104.595 28.1453C104.607 28.1863 104.628 28.2245 104.655 28.2575C104.682 28.2906 104.715 28.3179 104.753 28.3378C104.765 28.3486 104.779 28.3586 104.793 28.3678L104.902 28.4178ZM138.728 27.4178C138.813 27.4187 138.896 27.3865 138.958 27.3278C139.017 27.2662 139.051 27.1837 139.051 27.0978C139.051 27.0119 139.017 26.9294 138.958 26.8678C138.499 26.3978 138.031 25.9378 137.563 25.4878C137.501 25.428 137.419 25.3945 137.333 25.3945C137.248 25.3945 137.166 25.428 137.104 25.4878C137.045 25.5477 137.012 25.6286 137.012 25.7128C137.012 25.7971 137.045 25.8779 137.104 25.9378C137.563 26.3778 138.021 26.8378 138.469 27.2978C138.515 27.3241 138.566 27.3379 138.619 27.3378L138.728 27.4178ZM93.8924 27.4178C93.9418 27.4273 93.9925 27.4273 94.0419 27.4178C94.1161 27.3756 94.1716 27.3068 94.1975 27.2252C94.2233 27.1437 94.2176 27.0553 94.1814 26.9778C93.9008 26.4213 93.6964 25.8293 93.5736 25.2178C93.5643 25.1762 93.5467 25.1369 93.522 25.1022C93.4973 25.0675 93.4659 25.038 93.4297 25.0157C93.3935 24.9933 93.3532 24.9785 93.3112 24.972C93.2692 24.9655 93.2263 24.9674 93.185 24.9778C93.1437 24.9861 93.1044 25.0026 93.0695 25.0263C93.0346 25.05 93.0047 25.0803 92.9815 25.1157C92.9583 25.151 92.9424 25.1906 92.9346 25.2322C92.9267 25.2737 92.9272 25.3164 92.936 25.3578C93.0805 26.0193 93.3046 26.6607 93.6035 27.2678C93.6515 27.298 93.7064 27.3152 93.763 27.3178L93.8924 27.4178ZM135.929 24.7678C135.974 24.7676 136.019 24.7577 136.06 24.7387C136.101 24.7198 136.138 24.6922 136.168 24.6578C136.227 24.5962 136.261 24.5137 136.261 24.4278C136.261 24.3419 136.227 24.2594 136.168 24.1978L135.57 23.6978L134.643 22.9678C134.574 22.9153 134.488 22.8921 134.402 22.9034C134.316 22.9146 134.238 22.9593 134.185 23.0278C134.136 23.0963 134.114 23.1811 134.126 23.2648C134.137 23.3485 134.179 23.4247 134.245 23.4778L135.161 24.1978L135.749 24.6978C135.767 24.6894 135.783 24.6794 135.799 24.6678L135.929 24.7678ZM105.52 24.6778C105.605 24.6678 105.684 24.6244 105.738 24.5571C105.792 24.4898 105.817 24.4038 105.809 24.3178C105.733 23.6393 105.593 22.9697 105.39 22.3178C105.379 22.2769 105.359 22.2387 105.333 22.2054C105.307 22.1721 105.274 22.1444 105.237 22.124C105.2 22.1035 105.159 22.0906 105.117 22.0861C105.075 22.0816 105.032 22.0856 104.992 22.0978C104.951 22.1091 104.913 22.1287 104.88 22.1553C104.848 22.1819 104.821 22.2149 104.801 22.2524C104.781 22.2899 104.77 22.331 104.767 22.3732C104.763 22.4154 104.769 22.4578 104.783 22.4978C104.963 23.1026 105.093 23.7214 105.171 24.3478C105.185 24.402 105.212 24.4518 105.25 24.4921C105.289 24.5325 105.337 24.562 105.39 24.5778L105.52 24.6778ZM93.1153 23.6778C93.1965 23.678 93.2747 23.647 93.334 23.5913C93.3932 23.5355 93.4291 23.4592 93.4341 23.3778C93.4801 22.7629 93.6212 22.159 93.8526 21.5878C93.869 21.5491 93.8776 21.5075 93.878 21.4654C93.8784 21.4233 93.8704 21.3816 93.8547 21.3426C93.839 21.3035 93.8157 21.268 93.7863 21.238C93.7569 21.2081 93.7219 21.1842 93.6832 21.1678C93.6446 21.1513 93.6032 21.1427 93.5612 21.1423C93.5193 21.142 93.4777 21.1499 93.4388 21.1657C93.3999 21.1815 93.3646 21.2048 93.3347 21.2343C93.3048 21.2639 93.2811 21.2991 93.2648 21.3378C93.0007 21.9743 92.8425 22.6499 92.7965 23.3378C92.7924 23.3807 92.7969 23.4239 92.8098 23.4649C92.8228 23.5059 92.8438 23.5439 92.8717 23.5766C92.8996 23.6093 92.9338 23.636 92.9723 23.6551C93.0107 23.6742 93.0525 23.6853 93.0953 23.6878L93.1153 23.6778ZM132.71 22.2678C132.763 22.2687 132.816 22.2564 132.863 22.232C132.91 22.2075 132.95 22.1717 132.979 22.1278C133.027 22.057 133.045 21.9706 133.03 21.8867C133.015 21.8028 132.968 21.728 132.9 21.6778C132.362 21.3078 131.804 20.9478 131.256 20.6078C131.182 20.5634 131.093 20.55 131.009 20.5706C130.925 20.5912 130.853 20.6441 130.807 20.7178C130.786 20.7539 130.771 20.7939 130.765 20.8356C130.759 20.8773 130.761 20.9198 130.771 20.9607C130.781 21.0015 130.799 21.04 130.824 21.0739C130.849 21.1077 130.881 21.1362 130.917 21.1578C131.462 21.4978 132 21.8478 132.531 22.2078C132.583 22.2456 132.646 22.2665 132.71 22.2678ZM104.314 20.8178C104.357 20.828 104.401 20.828 104.444 20.8178C104.523 20.7827 104.584 20.718 104.616 20.6376C104.648 20.5572 104.647 20.4675 104.613 20.3878C104.364 19.8178 104.075 19.2178 103.746 18.6178C103.727 18.58 103.699 18.5465 103.666 18.5193C103.633 18.4922 103.595 18.472 103.555 18.4599C103.514 18.4478 103.471 18.444 103.428 18.4488C103.386 18.4536 103.345 18.4669 103.308 18.4878C103.234 18.53 103.179 18.5995 103.155 18.6815C103.13 18.7636 103.139 18.8519 103.178 18.9278C103.497 19.5078 103.786 20.0878 104.025 20.6478C104.049 20.7059 104.089 20.7558 104.14 20.7913C104.191 20.8269 104.252 20.8465 104.314 20.8478V20.8178ZM129.353 20.2678C129.412 20.2692 129.47 20.254 129.521 20.224C129.572 20.1939 129.614 20.1503 129.642 20.0978C129.681 20.0219 129.69 19.9336 129.666 19.8515C129.641 19.7694 129.586 19.7 129.512 19.6578C128.944 19.3478 128.356 19.0478 127.768 18.7578C127.731 18.7392 127.689 18.7282 127.647 18.7257C127.605 18.7231 127.563 18.729 127.523 18.743C127.483 18.7569 127.446 18.7787 127.415 18.807C127.384 18.8353 127.358 18.8696 127.34 18.9078C127.321 18.9459 127.311 18.9872 127.308 19.0295C127.306 19.0718 127.311 19.1142 127.325 19.1542C127.339 19.1942 127.361 19.231 127.389 19.2625C127.417 19.294 127.451 19.3197 127.49 19.3378C128.067 19.6178 128.645 19.9178 129.203 20.2278C129.248 20.255 129.3 20.2689 129.353 20.2678ZM94.4006 20.0178C94.4483 20.0172 94.4953 20.0061 94.5383 19.9854C94.5813 19.9646 94.6193 19.9348 94.6497 19.8978C95.0525 19.4249 95.5071 18.9988 96.0047 18.6278C96.0401 18.604 96.0702 18.573 96.093 18.5369C96.1159 18.5008 96.1311 18.4604 96.1377 18.4182C96.1442 18.3759 96.142 18.3327 96.1311 18.2914C96.1202 18.25 96.1009 18.2113 96.0744 18.1778C96.0507 18.1423 96.0198 18.1121 95.9839 18.0892C95.9479 18.0662 95.9077 18.0509 95.8655 18.0444C95.8234 18.0378 95.7804 18.04 95.7392 18.051C95.698 18.0619 95.6595 18.0812 95.6261 18.1078C95.0839 18.51 94.5891 18.973 94.1515 19.4878C94.0948 19.5489 94.0632 19.6293 94.0632 19.7128C94.0632 19.7963 94.0948 19.8767 94.1515 19.9378C94.1955 19.9772 94.249 20.0044 94.3066 20.0166C94.3643 20.0289 94.4242 20.0259 94.4803 20.0078L94.4006 20.0178ZM125.865 18.5678C125.929 18.5648 125.99 18.5447 126.043 18.5094C126.095 18.4742 126.137 18.4252 126.164 18.3678C126.181 18.3291 126.189 18.2875 126.19 18.2454C126.19 18.2033 126.182 18.1616 126.166 18.1226C126.151 18.0835 126.127 18.048 126.098 18.018C126.069 17.9881 126.034 17.9642 125.995 17.9478C125.387 17.6878 124.779 17.4478 124.172 17.2178C124.091 17.1884 124.002 17.1918 123.924 17.2273C123.846 17.2628 123.784 17.3276 123.753 17.4078C123.724 17.4901 123.729 17.5804 123.767 17.6591C123.804 17.7377 123.871 17.7984 123.952 17.8278C124.55 18.0478 125.148 18.2878 125.736 18.5378C125.792 18.5622 125.855 18.5692 125.915 18.5578L125.865 18.5678ZM97.4793 17.6878C97.5247 17.7024 97.5735 17.7024 97.6188 17.6878C98.1893 17.4117 98.7747 17.1679 99.3724 16.9578C99.4125 16.9443 99.4495 16.923 99.4813 16.895C99.5131 16.867 99.5391 16.8329 99.5576 16.7947C99.5761 16.7565 99.5869 16.7151 99.5893 16.6727C99.5918 16.6303 99.5857 16.5879 99.5717 16.5478C99.5582 16.5076 99.5369 16.4704 99.509 16.4385C99.4811 16.4066 99.4472 16.3806 99.4092 16.3619C99.3711 16.3433 99.3298 16.3325 99.2876 16.3301C99.2454 16.3277 99.2031 16.3337 99.1632 16.3478C98.5383 16.5662 97.9262 16.8199 97.3299 17.1078C97.2539 17.1483 97.1968 17.217 97.1707 17.2993C97.1446 17.3815 97.1516 17.4707 97.1903 17.5478C97.227 17.6015 97.279 17.6426 97.3395 17.6659C97.4 17.6891 97.4662 17.6933 97.5291 17.6778L97.4793 17.6878ZM102.461 17.4178C102.522 17.4216 102.582 17.4039 102.63 17.3678C102.667 17.3464 102.698 17.3177 102.723 17.2836C102.748 17.2495 102.766 17.2106 102.775 17.1694C102.784 17.1282 102.785 17.0855 102.777 17.044C102.77 17.0024 102.754 16.9629 102.73 16.9278C102.571 16.6678 102.401 16.4178 102.232 16.1478L103.119 15.9678C103.202 15.9532 103.276 15.906 103.324 15.8366C103.373 15.7672 103.392 15.6813 103.378 15.5978C103.371 15.5554 103.355 15.515 103.332 15.4788C103.309 15.4426 103.279 15.4114 103.243 15.3871C103.208 15.3629 103.168 15.346 103.126 15.3376C103.084 15.3291 103.041 15.3292 102.999 15.3378C102.611 15.4078 102.222 15.4878 101.843 15.5778L101.644 15.2978C101.62 15.2627 101.589 15.2327 101.554 15.2096C101.518 15.1865 101.478 15.1707 101.437 15.1633C101.395 15.1558 101.352 15.1568 101.311 15.1662C101.269 15.1756 101.23 15.1931 101.196 15.2178C101.161 15.2418 101.131 15.2726 101.108 15.3084C101.085 15.3441 101.069 15.3841 101.062 15.426C101.054 15.4679 101.055 15.5109 101.065 15.5524C101.074 15.5939 101.091 15.6332 101.116 15.6678L101.166 15.7378H101.086C101.003 15.7613 100.932 15.8158 100.887 15.8902C100.843 15.9645 100.829 16.0531 100.847 16.1378C100.872 16.2194 100.928 16.2884 101.001 16.3311C101.075 16.3737 101.162 16.3868 101.246 16.3678L101.554 16.2978C101.784 16.6178 101.993 16.9478 102.192 17.2978C102.223 17.3354 102.263 17.365 102.308 17.3841C102.353 17.4032 102.402 17.4114 102.451 17.4078L102.461 17.4178ZM122.249 17.2078C122.317 17.2108 122.385 17.1907 122.441 17.1509C122.497 17.1111 122.538 17.0537 122.558 16.9878C122.583 16.9056 122.575 16.8167 122.536 16.7401C122.497 16.6635 122.43 16.6053 122.348 16.5778C121.731 16.3878 121.093 16.1978 120.465 16.0378C120.425 16.0258 120.382 16.0224 120.34 16.0276C120.298 16.0328 120.258 16.0466 120.221 16.0682C120.185 16.0898 120.153 16.1186 120.128 16.153C120.103 16.1873 120.086 16.2264 120.077 16.2678C120.066 16.3085 120.064 16.3509 120.07 16.3925C120.075 16.4342 120.089 16.4743 120.111 16.5105C120.132 16.5467 120.16 16.5784 120.194 16.6036C120.227 16.6289 120.265 16.6473 120.306 16.6578C120.924 16.8178 121.541 17.0078 122.159 17.1978L122.249 17.2078ZM118.502 16.2078C118.576 16.2088 118.648 16.1831 118.705 16.1354C118.762 16.0877 118.799 16.0211 118.811 15.9478C118.82 15.9064 118.82 15.8637 118.813 15.8222C118.805 15.7806 118.789 15.741 118.766 15.7057C118.743 15.6703 118.713 15.64 118.678 15.6163C118.643 15.5926 118.603 15.5761 118.562 15.5678C117.924 15.4278 117.277 15.3078 116.639 15.2078C116.556 15.1933 116.47 15.2125 116.401 15.2613C116.332 15.31 116.285 15.3843 116.271 15.4678C116.262 15.5101 116.262 15.5536 116.271 15.5957C116.281 15.6378 116.298 15.6776 116.324 15.7124C116.349 15.7472 116.381 15.7763 116.418 15.7979C116.456 15.8195 116.497 15.8331 116.54 15.8378C117.167 15.9478 117.805 16.0678 118.433 16.1978L118.502 16.2078ZM104.982 15.6578C105.61 15.5678 106.257 15.4978 106.895 15.4478C106.98 15.4402 107.059 15.3993 107.115 15.3339C107.171 15.2685 107.199 15.1838 107.194 15.0978C107.19 15.0557 107.178 15.0148 107.158 14.9774C107.139 14.94 107.112 14.9068 107.08 14.8799C107.047 14.8529 107.01 14.8327 106.97 14.8203C106.929 14.8079 106.887 14.8037 106.845 14.8078C106.197 14.8078 105.54 14.9278 104.852 15.0178C104.811 15.0227 104.77 15.036 104.734 15.0569C104.698 15.0779 104.666 15.1061 104.641 15.1398C104.616 15.1735 104.597 15.2119 104.588 15.2529C104.578 15.2938 104.576 15.3363 104.583 15.3778C104.587 15.4263 104.602 15.4734 104.626 15.5155C104.65 15.5575 104.684 15.5934 104.724 15.6204C104.765 15.6474 104.811 15.6648 104.859 15.6713C104.907 15.6778 104.956 15.6732 105.002 15.6578H104.982ZM114.666 15.5778C114.746 15.5782 114.823 15.5486 114.882 15.4949C114.941 15.4413 114.978 15.3674 114.985 15.2878C114.994 15.2044 114.969 15.1211 114.917 15.0556C114.865 14.9902 114.789 14.9479 114.706 14.9378C114.059 14.8578 113.401 14.7978 112.714 14.7578C112.672 14.7551 112.63 14.7607 112.59 14.7744C112.55 14.788 112.514 14.8093 112.482 14.8372C112.451 14.8651 112.425 14.8989 112.407 14.9368C112.388 14.9746 112.377 15.0158 112.375 15.0578C112.371 15.1002 112.375 15.1429 112.388 15.1833C112.401 15.2238 112.423 15.2611 112.451 15.293C112.479 15.3249 112.513 15.3507 112.551 15.3687C112.59 15.3867 112.631 15.3967 112.674 15.3978C113.311 15.4478 113.959 15.4978 114.587 15.5778H114.666ZM108.848 15.3378C109.495 15.3378 110.133 15.3378 110.781 15.3378C110.822 15.3392 110.863 15.3321 110.902 15.3172C110.941 15.3022 110.976 15.2796 111.006 15.2506C111.035 15.2217 111.059 15.1871 111.075 15.1488C111.091 15.1105 111.099 15.0694 111.099 15.0278C111.101 14.9858 111.094 14.9439 111.079 14.9046C111.064 14.8652 111.042 14.8292 111.013 14.7986C110.984 14.7679 110.95 14.7432 110.912 14.726C110.874 14.7087 110.832 14.6991 110.791 14.6978C110.133 14.6978 109.485 14.6978 108.798 14.6978C108.755 14.6991 108.713 14.709 108.674 14.7269C108.635 14.7448 108.6 14.7704 108.572 14.8021C108.543 14.8338 108.521 14.871 108.506 14.9115C108.492 14.952 108.486 14.995 108.489 15.0378C108.491 15.0837 108.503 15.1286 108.524 15.1695C108.545 15.2104 108.574 15.2463 108.61 15.2747C108.646 15.3032 108.688 15.3236 108.732 15.3344C108.776 15.3453 108.823 15.3465 108.868 15.3378H108.848ZM100.229 14.2278C100.302 14.2287 100.372 14.2039 100.429 14.1578C100.488 14.0979 100.521 14.0171 100.521 13.9328C100.521 13.8486 100.488 13.7677 100.429 13.7078C100.03 13.1878 99.6115 12.7078 99.193 12.1778C99.1333 12.1186 99.0528 12.0854 98.9689 12.0854C98.8849 12.0854 98.8044 12.1186 98.7447 12.1778C98.6851 12.2394 98.6517 12.3219 98.6517 12.4078C98.6517 12.4937 98.6851 12.5762 98.7447 12.6378C99.1532 13.1178 99.5717 13.6378 99.9602 14.1278C99.9918 14.1747 100.035 14.2124 100.086 14.237C100.137 14.2616 100.193 14.2722 100.249 14.2678L100.229 14.2278ZM97.6985 11.2278C97.7391 11.228 97.7795 11.2202 97.8171 11.2047C97.8547 11.1893 97.8889 11.1666 97.9177 11.1378C97.9482 11.1089 97.9724 11.074 97.989 11.0353C98.0056 10.9966 98.0141 10.9549 98.0141 10.9128C98.0141 10.8707 98.0056 10.8291 97.989 10.7904C97.9724 10.7517 97.9482 10.7168 97.9177 10.6878C97.4694 10.2078 97.0011 9.74783 96.5228 9.30783C96.4939 9.27727 96.4592 9.25293 96.4206 9.2363C96.3821 9.21966 96.3406 9.21106 96.2987 9.21106C96.2567 9.21106 96.2151 9.21966 96.1766 9.2363C96.1381 9.25293 96.1033 9.27727 96.0744 9.30783C96.0437 9.33767 96.0193 9.37339 96.0026 9.4129C95.9859 9.45242 95.9773 9.49489 95.9773 9.53781C95.9773 9.58073 95.9859 9.62321 96.0026 9.66272C96.0193 9.70223 96.0437 9.73798 96.0744 9.76782C96.5427 10.1978 97.0011 10.6578 97.4494 11.1178C97.4756 11.1657 97.5148 11.2052 97.5624 11.2318C97.61 11.2583 97.6641 11.2708 97.7184 11.2678L97.6985 11.2278ZM94.8589 8.57782C94.9531 8.57542 95.0426 8.53592 95.108 8.46783C95.1677 8.40624 95.201 8.32372 95.201 8.23782C95.201 8.15193 95.1677 8.06941 95.108 8.00781C94.5999 7.58781 94.1117 7.18783 93.5537 6.80783C93.5192 6.78312 93.4801 6.76556 93.4387 6.7562C93.3973 6.74683 93.3545 6.74585 93.3128 6.7533C93.271 6.76075 93.2312 6.77649 93.1956 6.79959C93.16 6.82269 93.1292 6.85268 93.1053 6.88782C93.0802 6.92186 93.0621 6.96057 93.052 7.00171C93.0419 7.04284 93.04 7.08558 93.0465 7.12744C93.053 7.1693 93.0677 7.20946 93.0898 7.24557C93.1118 7.28169 93.1408 7.31305 93.1751 7.33783C93.6932 7.71116 94.2013 8.10115 94.6995 8.50781C94.7446 8.56439 94.8081 8.60333 94.8789 8.61783L94.8589 8.57782ZM91.7005 6.31781C91.7543 6.31762 91.8072 6.30379 91.8542 6.27756C91.9013 6.25133 91.9409 6.21357 91.9695 6.16782C92.0147 6.09459 92.0296 6.00653 92.0109 5.92245C91.9923 5.83838 91.9417 5.76496 91.8699 5.71783C91.3119 5.37783 90.734 5.04783 90.1561 4.71783C90.0793 4.67899 89.9904 4.67189 89.9085 4.69806C89.8265 4.72423 89.758 4.78158 89.7177 4.85782C89.6794 4.93342 89.6727 5.02115 89.6988 5.10178C89.725 5.1824 89.7819 5.24931 89.8572 5.28781C90.4251 5.58781 90.9831 5.90781 91.5311 6.28781C91.5564 6.31159 91.5862 6.33005 91.6187 6.34207C91.6512 6.3541 91.6858 6.35945 91.7204 6.35782L91.7005 6.31781ZM88.2531 4.51782C88.316 4.51931 88.378 4.50207 88.4312 4.46826C88.4844 4.43445 88.5264 4.38557 88.552 4.32782C88.5684 4.28909 88.577 4.2475 88.5774 4.20541C88.5778 4.16333 88.5698 4.12156 88.5541 4.08255C88.5384 4.04354 88.5151 4.00801 88.4857 3.97803C88.4563 3.94804 88.4212 3.92421 88.3826 3.90784C87.7848 3.64784 87.167 3.40784 86.5493 3.18784C86.5094 3.17369 86.4672 3.16765 86.4249 3.17007C86.3827 3.1725 86.3413 3.18332 86.3033 3.20193C86.2653 3.22055 86.2314 3.24656 86.2035 3.27847C86.1756 3.31039 86.1543 3.34756 86.1408 3.38782C86.1267 3.42785 86.1207 3.47031 86.1231 3.5127C86.1255 3.55508 86.1363 3.59655 86.1549 3.6347C86.1734 3.67286 86.1993 3.70695 86.2311 3.73495C86.2629 3.76296 86.3 3.78432 86.3401 3.79782C86.9379 4.00782 87.5457 4.24783 88.1236 4.49783C88.1674 4.53033 88.2189 4.55099 88.273 4.55783L88.2531 4.51782ZM63.4438 3.71783H63.5136L65.4067 3.31781C65.4489 3.31063 65.4892 3.29501 65.5253 3.27185C65.5613 3.24869 65.5924 3.21848 65.6166 3.18301C65.6407 3.14755 65.6576 3.10756 65.666 3.06543C65.6744 3.0233 65.6744 2.97992 65.6658 2.93784C65.6466 2.85537 65.5967 2.78344 65.5262 2.73691C65.4557 2.69038 65.3702 2.67281 65.2871 2.68784C64.6495 2.80784 64.0118 2.94783 63.3742 3.08783C63.292 3.10701 63.2203 3.15715 63.174 3.22787C63.1276 3.2986 63.1101 3.38452 63.1251 3.46783C63.1371 3.54909 63.178 3.6232 63.2403 3.67651C63.3026 3.72982 63.382 3.7587 63.4638 3.75781L63.4438 3.71783ZM84.5865 3.23782C84.6589 3.24012 84.7299 3.2176 84.7879 3.17398C84.8458 3.13036 84.8873 3.06824 84.9053 2.99783C84.9158 2.95712 84.9182 2.91472 84.9123 2.87308C84.9065 2.83144 84.8926 2.79138 84.8713 2.75516C84.85 2.71894 84.8218 2.68727 84.7883 2.66199C84.7549 2.63671 84.7167 2.61831 84.6761 2.60782C84.0484 2.43782 83.4108 2.27783 82.7632 2.14783C82.6787 2.13311 82.592 2.15203 82.5213 2.20059C82.4505 2.24915 82.4015 2.32353 82.3845 2.40784C82.3696 2.49115 82.3871 2.57704 82.4334 2.64777C82.4798 2.71849 82.5515 2.76863 82.6336 2.78781C83.2713 2.90781 83.899 3.05781 84.5068 3.22781L84.5865 3.23782ZM67.2499 2.95782H67.3097C67.9739 2.84449 68.6116 2.7445 69.2227 2.65784C69.3066 2.6431 69.3814 2.59629 69.4316 2.52728C69.4818 2.45828 69.5033 2.37244 69.4917 2.28781C69.4869 2.24598 69.4737 2.20559 69.4528 2.16907C69.4319 2.13255 69.4038 2.10067 69.3702 2.07541C69.3367 2.05014 69.2983 2.03203 69.2575 2.02213C69.2168 2.01222 69.1744 2.01075 69.133 2.01782C68.4854 2.10782 67.8477 2.20781 67.2001 2.31781C67.1169 2.33245 67.0429 2.37966 66.9943 2.44904C66.9458 2.51841 66.9266 2.6043 66.9411 2.68784C66.941 2.73028 66.9496 2.77227 66.9664 2.81125C66.9831 2.85023 67.0077 2.88533 67.0385 2.9144C67.0693 2.94346 67.1058 2.96588 67.1456 2.98022C67.1854 2.99457 67.2277 3.00057 67.2699 2.99783L67.2499 2.95782ZM80.7904 2.46783C80.8679 2.46637 80.9424 2.43746 81.0008 2.38623C81.0591 2.335 81.0975 2.26474 81.1092 2.18784C81.1148 2.14576 81.112 2.10298 81.1009 2.06201C81.0899 2.02104 81.0708 1.98269 81.0448 1.94919C81.0189 1.91569 80.9865 1.88769 80.9497 1.86685C80.9128 1.84602 80.8722 1.83276 80.8302 1.82782C80.1926 1.73782 79.535 1.66783 78.8375 1.61783C78.7962 1.61372 78.7544 1.61801 78.7147 1.63049C78.6751 1.64297 78.6383 1.66338 78.6067 1.69046C78.5751 1.71754 78.5491 1.75074 78.5306 1.78809C78.5121 1.82544 78.5013 1.86618 78.4988 1.90784C78.4947 1.94989 78.4989 1.99234 78.5112 2.03275C78.5235 2.07315 78.5437 2.11071 78.5706 2.14325C78.5974 2.17579 78.6305 2.20269 78.6677 2.22235C78.705 2.24201 78.7458 2.25405 78.7877 2.25781C79.4354 2.30781 80.083 2.37783 80.7007 2.46783H80.7904ZM71.0959 2.41782C71.7336 2.34782 72.3812 2.29783 73.0189 2.24783C73.0608 2.24529 73.1017 2.23445 73.1395 2.21597C73.1772 2.19749 73.2109 2.17173 73.2386 2.14014C73.2664 2.10855 73.2877 2.07176 73.3013 2.03189C73.3148 1.99203 73.3204 1.94988 73.3177 1.90784C73.3153 1.86487 73.3042 1.82283 73.2852 1.78427C73.2661 1.74571 73.2395 1.71142 73.2069 1.68341C73.1744 1.6554 73.1365 1.63426 73.0957 1.62128C73.0548 1.60829 73.0117 1.60371 72.969 1.60782C72.3214 1.60782 71.6737 1.70783 70.9763 1.77783C70.9343 1.78159 70.8936 1.79363 70.8563 1.81329C70.819 1.83296 70.786 1.85985 70.7592 1.8924C70.7323 1.92494 70.7122 1.96249 70.6998 2.0029C70.6875 2.04331 70.6832 2.08575 70.6874 2.12781C70.6823 2.18173 70.691 2.23609 70.7125 2.28574C70.7341 2.33539 70.7679 2.37874 70.8107 2.41171C70.8535 2.44469 70.9039 2.46621 70.9573 2.47427C71.0107 2.48234 71.0652 2.47668 71.1158 2.45782L71.0959 2.41782ZM76.9146 2.15784C76.9984 2.15799 77.0792 2.12595 77.1403 2.06833C77.2014 2.0107 77.2383 1.93182 77.2434 1.84781C77.2447 1.80495 77.2375 1.76228 77.222 1.72229C77.2066 1.6823 77.1833 1.64583 77.1536 1.61505C77.1238 1.58427 77.0883 1.55979 77.0489 1.54309C77.0096 1.52639 76.9673 1.5178 76.9245 1.51782C76.2769 1.51782 75.6193 1.51782 74.9318 1.51782C74.8891 1.5178 74.8468 1.52639 74.8075 1.54309C74.7681 1.55979 74.7325 1.58427 74.7028 1.61505C74.673 1.64583 74.6498 1.6823 74.6343 1.72229C74.6189 1.76228 74.6117 1.80495 74.613 1.84781C74.6156 1.93093 74.6503 2.00979 74.7098 2.06766C74.7693 2.12552 74.849 2.15788 74.9318 2.15784H76.8747H76.9146Z" fill="#999999"/>
<path d="M27.1365 76.1283L24.3269 77.3483L13.0979 69.4883L10.1089 71.1483C7.70766 72.5883 5.3762 72.6883 4.26028 72.0483L4.03108 72.1583C2.29742 72.9183 1.27118 72.2383 0.922459 71.4183C0.573734 70.5983 0.773033 69.4183 2.50669 68.6383L2.73583 68.5383C2.94507 67.5383 3.85179 65.8583 7.38885 64.8683L10.6469 63.8183L12.6396 50.2283L15.4493 48.9983L17.6313 61.5883L25.662 58.8283L26.8775 55.5983L29.1094 54.7683L29.2687 57.7683L30.0658 57.6983L30.7932 59.3683L30.1954 59.9583L32.3076 62.1583L30.1755 63.2283L27.0071 61.9083L19.5045 65.9083L27.1365 76.1283ZM26.9273 61.1783L30.1157 62.5083L31.112 61.9883L29.1791 59.9883L29.9064 59.2483L29.5676 58.4583L28.5713 58.5483L28.4219 55.7483L27.3358 56.1483L26.1203 59.3883L17.0336 62.4983L14.8714 49.9883L13.1876 50.7183L11.2447 64.3583L7.56819 65.5383C4.14073 66.4883 3.46317 68.0283 3.36354 68.8583V69.0683L3.16426 69.1383C3.03767 69.1745 2.91435 69.2213 2.79561 69.2783C1.72951 69.7383 1.25127 70.4683 1.56014 71.1683C1.86901 71.8683 2.71589 72.0283 3.78199 71.5583C3.90195 71.5097 4.01851 71.4528 4.13075 71.3883L4.32006 71.2783L4.4994 71.4083C5.22674 71.9483 7.34898 72.0483 9.80001 70.5883L13.1477 68.7083L24.4065 76.5983L26.0904 75.8683L18.4583 65.7283L26.9273 61.1783Z" fill="#999999"/>
</svg>
