<svg width="100" height="81" viewBox="0 0 100 81" fill="none" xmlns="http://www.w3.org/2000/svg">
<path d="M48.6287 14.1623C41.2101 9.46699 28.9767 20.7764 25.8683 23.8585C26.4953 21.9039 27.5816 20.1507 29.0248 18.7642C29.0586 18.736 29.0857 18.6999 29.1038 18.6585C29.1219 18.6172 29.1305 18.5719 29.1289 18.5264C29.129 18.4826 29.1188 18.4395 29.0992 18.401C29.0797 18.3624 29.0513 18.3297 29.0168 18.3057C28.3296 17.8134 27.5227 17.5421 26.6934 17.5245C27.1202 16.9673 27.6685 16.5285 28.291 16.246C28.9135 15.9635 29.5915 15.8457 30.2665 15.9028C30.3163 15.9106 30.3672 15.9027 30.4128 15.8801C30.4584 15.8574 30.4967 15.821 30.5229 15.7755C30.5482 15.729 30.5616 15.6763 30.5616 15.6227C30.5616 15.569 30.5482 15.5163 30.5229 15.4698C30.1954 14.9448 29.7429 14.5206 29.2112 14.2403C28.6794 13.9601 28.0873 13.8335 27.4946 13.8736C28.5441 13.0245 30.9235 12.7189 31.8849 12.6849C31.9361 12.6844 31.9862 12.668 32.0288 12.6379C32.0715 12.6077 32.105 12.5651 32.1252 12.5151C32.1449 12.4664 32.1515 12.413 32.1445 12.3606C32.1374 12.3082 32.1169 12.2588 32.0851 12.2179C31.1574 11.0743 29.8422 10.3637 28.4239 10.2396C29.7538 8.54152 33.6954 8.03207 33.7355 8.02358C33.7917 8.019 33.845 7.9949 33.887 7.95499C33.929 7.91508 33.9574 7.8616 33.9678 7.80284C33.981 7.76996 33.988 7.73462 33.9882 7.69889C33.9885 7.66315 33.9822 7.62772 33.9695 7.59459C33.9569 7.56147 33.9382 7.53131 33.9145 7.50585C33.8909 7.48039 33.8627 7.46013 33.8316 7.44623C32.5813 6.60239 31.1637 6.07642 29.6897 5.90943C31.292 3.80377 36.3873 2.5132 36.4434 2.5132C36.4977 2.49972 36.5468 2.46886 36.5841 2.42482C36.6213 2.38078 36.6449 2.32568 36.6516 2.26697C36.6579 2.20905 36.6475 2.15046 36.6218 2.09894C36.596 2.04741 36.5562 2.00535 36.5074 1.97829C33.0946 0.0933849 28.9286 1.92735 28.7364 1.97829C23.9295 4.52547 23.7132 12.9736 24.2179 18.8236C22.3272 11.717 18.2174 0.58585 10.951 0C10.7107 0 5.04659 -1.98383e-05 1.93816 3.88017C1.90678 3.9274 1.88995 3.98374 1.88995 4.0415C1.88995 4.09925 1.90678 4.1556 1.93816 4.20282C1.96618 4.25358 2.00775 4.2944 2.05767 4.32009C2.10758 4.34579 2.16357 4.35522 2.21854 4.34717C2.29064 4.34717 9.06032 3.18395 11.8323 4.96697C10.1413 5.8962 8.6873 7.24488 7.59422 8.89811C7.56148 8.94794 7.54393 9.00721 7.54393 9.06793C7.54393 9.12865 7.56148 9.1879 7.59422 9.23773C7.62683 9.28631 7.67283 9.32303 7.7259 9.3428C7.77898 9.36256 7.83653 9.3644 7.89064 9.34811C7.94672 9.34811 12.9699 7.86227 15.2772 9.30567C14.4648 9.723 13.7394 10.3083 13.1437 11.0272C12.5479 11.746 12.0939 12.5839 11.8082 13.4915C11.7917 13.5431 11.7897 13.5987 11.8025 13.6515C11.8153 13.7043 11.8424 13.752 11.8803 13.7887C11.9162 13.827 11.9621 13.8531 12.012 13.8637C12.0619 13.8743 12.1137 13.8689 12.1607 13.8481C13.3544 13.3811 16.4629 12.4557 18.0652 13.084C17.3275 13.3114 16.6623 13.7479 16.1414 14.3464C15.6205 14.9448 15.2635 15.6826 15.1089 16.4802C15.1012 16.5334 15.1075 16.5877 15.1274 16.6372C15.1472 16.6867 15.1796 16.7294 15.2211 16.7604C15.2649 16.7872 15.3147 16.8013 15.3653 16.8013C15.4159 16.8013 15.4657 16.7872 15.5095 16.7604C16.3019 16.328 17.1848 16.1152 18.0757 16.1419C18.9666 16.1687 19.8367 16.434 20.6048 16.9132C19.6045 17.3425 18.748 18.0787 18.1453 19.0274C18.1256 19.0666 18.1154 19.1103 18.1154 19.1547C18.1154 19.1991 18.1256 19.2429 18.1453 19.2821C18.1601 19.324 18.1837 19.3617 18.2142 19.3926C18.2447 19.4235 18.2814 19.4466 18.3215 19.4604C20.6796 20.357 22.7776 21.8871 24.4102 23.901C20.4525 22.2793 7.02539 17.3972 2.31467 23.901C2.20251 24.0793 -0.449268 28.3161 0.712389 32.468C0.728392 32.5236 0.759909 32.5729 0.802801 32.6093C0.845692 32.6456 0.897994 32.6674 0.95277 32.6717H0.992818C1.04084 32.6663 1.08671 32.6478 1.12602 32.6181C1.16532 32.5883 1.19669 32.5483 1.21711 32.5019C1.21711 32.4425 3.55647 26.9746 5.97592 25.7095C5.83161 27.3842 6.06217 29.0714 6.64888 30.634C6.66749 30.6899 6.70233 30.738 6.74839 30.7716C6.79445 30.8051 6.84937 30.8224 6.90525 30.8208C6.96282 30.8199 7.01862 30.7997 7.06468 30.7631C7.11074 30.7265 7.14467 30.6753 7.1616 30.617C7.1616 30.5746 8.4835 26.2614 10.4543 25.1491C10.3665 25.9434 10.4275 26.7482 10.6337 27.5175C10.8399 28.2867 11.1873 29.0054 11.656 29.6321C11.6882 29.6738 11.7309 29.7047 11.7792 29.7213C11.8275 29.7378 11.8793 29.7393 11.9284 29.7255C11.9778 29.7149 12.0231 29.6891 12.0587 29.6513C12.0943 29.6136 12.1187 29.5656 12.1287 29.5132C12.361 28.4434 13.1381 25.8113 14.2357 24.8434C14.0682 25.4951 14.0675 26.1824 14.2337 26.8345C14.3998 27.4865 14.7268 28.08 15.181 28.5538C15.2184 28.5894 15.2642 28.6138 15.3136 28.6242C15.3629 28.6347 15.414 28.6309 15.4614 28.6132C15.5093 28.5933 15.5511 28.5598 15.5821 28.5163C15.6132 28.4729 15.6325 28.4212 15.6377 28.367C15.7221 27.5997 15.9813 26.8656 16.393 26.228C16.8048 25.5905 17.3566 25.0687 18.0011 24.7076C17.8415 25.6347 17.9418 26.5911 18.2895 27.4585C18.3055 27.4993 18.3307 27.5352 18.3628 27.5633C18.3949 27.5914 18.433 27.6108 18.4737 27.6198C18.5142 27.6293 18.5561 27.6289 18.5964 27.6186C18.6366 27.6083 18.6741 27.5884 18.7061 27.5604C19.3391 27.0342 20.0305 26.5923 20.765 26.2444C20.4442 26.5581 20.1952 26.9452 20.0369 27.3763C19.8786 27.8074 19.8153 28.2711 19.8517 28.7321C19.9169 29.5415 20.2826 30.2903 20.8685 30.814C21.4543 31.3378 22.2124 31.5937 22.9762 31.5255C23.604 31.4671 24.1958 31.1894 24.6585 30.7359C25.3395 32.6208 27.9432 41.6548 23.5369 59.6038C17.5925 61.4972 16.6471 63.484 15.8219 65.2416C15.5543 65.8802 15.1979 66.4726 14.7645 66.9991C14.3456 67.6266 14.0979 68.3642 14.0484 69.131C13.999 69.8978 14.1497 70.6643 14.4841 71.3463C15.5816 73.7746 19.1948 76.4406 30.1384 75.4642C37.6691 74.785 42.3077 72.9171 43.926 69.9114C44.2545 69.3357 44.4516 68.6867 44.5017 68.016C44.5518 67.3453 44.4534 66.6715 44.2144 66.0482C42.6121 61.9897 38.5103 58.7038 34.6007 58.3048C33.9758 51.7585 32.0611 36.4161 27.5266 30.2859C27.7184 30.3071 27.9117 30.3071 28.1035 30.2859C28.8678 30.2146 29.5744 29.8252 30.0684 29.203C30.5624 28.5808 30.8037 27.7764 30.7392 26.9661C30.6894 26.3571 30.468 25.778 30.1037 25.3041C29.7394 24.8302 29.249 24.4833 28.6963 24.3085C30.2396 24.1664 31.7944 24.3189 33.2869 24.7585C33.323 24.7773 33.3628 24.787 33.403 24.787C33.4433 24.787 33.483 24.7773 33.5192 24.7585C33.5547 24.7349 33.5843 24.7025 33.6052 24.664C33.6262 24.6255 33.6379 24.5822 33.6394 24.5378C33.6595 23.4818 33.3804 22.4437 32.8382 21.5576C33.6523 21.639 34.4345 21.9339 35.1142 22.4156C35.7939 22.8973 36.3498 23.5508 36.7318 24.317C36.7539 24.3648 36.7881 24.4051 36.8305 24.4335C36.8729 24.462 36.9219 24.4775 36.9721 24.4783C37.0223 24.4775 37.0713 24.462 37.1137 24.4335C37.1561 24.4051 37.1903 24.3648 37.2124 24.317C37.5032 23.6297 37.6121 22.8716 37.5274 22.1237C37.4427 21.3759 37.1677 20.6666 36.7318 20.0717C38.2379 20.5387 40.0966 22.9585 40.7375 23.9774C40.765 24.0195 40.8023 24.0533 40.8459 24.0757C40.8894 24.098 40.9376 24.108 40.9858 24.1047V24.1047C41.0367 24.0967 41.0842 24.0732 41.1226 24.037C41.1611 24.0008 41.1887 23.9535 41.2021 23.901C41.4395 23.0589 41.5178 22.1755 41.4326 21.3014C41.3473 20.4272 41.1002 19.5794 40.7054 18.8066C43.1649 19.0613 46.1933 22.9755 46.2253 23.0519C46.2612 23.0982 46.3095 23.1319 46.3639 23.1486C46.4182 23.1652 46.476 23.1641 46.5297 23.1453C46.5846 23.1264 46.6318 23.0885 46.6638 23.0376C46.6957 22.9868 46.7106 22.926 46.706 22.8651C46.7127 21.0034 46.3008 19.1669 45.5043 17.5076C48.4765 17.7453 52.9869 22.4151 53.035 22.4661C53.0744 22.5072 53.1249 22.5343 53.1795 22.5434C53.2341 22.5525 53.29 22.5433 53.3394 22.517C53.389 22.4927 53.4303 22.4527 53.4575 22.4025C53.4848 22.3524 53.4967 22.2945 53.4917 22.2368C53.1472 17.5076 48.829 14.3066 48.6287 14.1623ZM34.2963 61.3784C34.1914 62.2705 33.8463 63.1117 33.3021 63.8013C32.758 64.491 32.0378 64.9999 31.2279 65.2671C28.9527 66.1161 25.7401 65.5557 24.2179 64.0444C23.9079 63.7776 23.6761 63.4226 23.5498 63.021C23.4235 62.6195 23.4079 62.188 23.5049 61.7774L23.6972 61.0302C25.6677 61.8064 27.7664 62.1501 29.866 62.0406C31.5014 61.9708 33.0482 61.2348 34.1841 59.9859C34.2562 60.7586 34.2883 61.251 34.2963 61.3784V61.3784ZM34.112 59.1708C31.3641 63.085 25.0912 60.9539 23.8334 60.4699C24.2019 59.0265 24.525 57.6397 24.8028 56.3095C26.2186 57.2359 27.881 57.6473 29.5375 57.4812C31.0389 57.3124 32.4877 56.7996 33.7836 55.9784C33.9198 57.218 34.0319 58.3048 34.112 59.1708ZM33.7115 55.3585C28.9046 58.4152 25.6039 56.2076 24.8989 55.7067C25.1713 54.3736 25.3956 53.1001 25.5959 51.8859C26.8876 52.3279 28.2483 52.4981 29.6016 52.3868C30.8391 52.2829 32.0398 51.8915 33.1186 51.2406C33.383 52.7095 33.5592 54.1444 33.7115 55.3585ZM25.7 51.3086C25.9003 50.035 26.0606 48.8123 26.1807 47.6661C27.2408 48.077 28.3729 48.2364 29.4974 48.1331C30.5481 48.0387 31.5673 47.7056 32.4857 47.1566C32.702 48.3368 32.8863 49.5 33.0545 50.6293C31.9432 51.2773 30.7165 51.6724 29.4529 51.7894C28.1893 51.9063 26.9165 51.7426 25.7161 51.3086H25.7ZM26.2368 47.0633C26.3409 45.9765 26.4211 44.9406 26.4691 43.9642C27.3742 44.2827 28.3307 44.404 29.2811 44.3208C30.1609 44.2377 31.0121 43.9477 31.7727 43.4717C31.989 44.4821 32.1973 45.5095 32.3816 46.5199C31.4628 47.0885 30.4361 47.4331 29.3759 47.5286C28.3158 47.624 27.2489 47.468 26.2528 47.0718L26.2368 47.0633ZM26.5012 43.3614C26.5012 42.4529 26.5492 41.5953 26.5412 40.8142C27.133 40.9283 27.7363 40.9597 28.3358 40.9076C29.2608 40.8414 30.1493 40.5001 30.8994 39.9227C31.1638 40.9076 31.4122 41.918 31.6365 42.9368C30.8639 43.3982 30.0058 43.676 29.1218 43.7508C28.2378 43.8255 27.3491 43.6956 26.5172 43.3699L26.5012 43.3614ZM26.5412 40.1944C26.5412 39.184 26.4772 38.2585 26.405 37.4095C26.8358 37.5128 27.279 37.5443 27.7189 37.5029C28.5128 37.427 29.2746 37.1345 29.9301 36.6538C30.2105 37.5029 30.4829 38.3519 30.7312 39.2774C30.1351 39.7322 29.4557 40.0495 28.7368 40.209C28.0179 40.3684 27.2754 40.3663 26.5573 40.2029L26.5412 40.1944ZM26.357 36.7982C26.2875 36.085 26.2074 35.4312 26.1166 34.8368C26.3697 34.8631 26.6246 34.8631 26.8777 34.8368C27.6174 34.7821 28.3228 34.4855 28.8966 33.9878C29.193 34.6585 29.4654 35.3717 29.7378 36.1104C29.2645 36.4915 28.7151 36.7524 28.1318 36.8731C27.5484 36.9938 26.9467 36.9711 26.373 36.8066L26.357 36.7982ZM26.0285 34.251C25.9083 33.5717 25.7882 32.9859 25.668 32.4849C25.8332 32.502 25.9995 32.502 26.1647 32.4849C26.7693 32.4411 27.3385 32.1666 27.767 31.7123C28.1014 32.2596 28.4063 32.8266 28.6803 33.4104C28.3282 33.7507 27.9088 34.0035 27.4529 34.1504C26.9969 34.2973 26.5158 34.3345 26.0445 34.2595L26.0285 34.251ZM25.5078 31.8736C25.3555 31.3132 25.2193 30.8972 25.1152 30.6085H25.4597C25.8846 30.5671 26.2953 30.425 26.6614 30.1925C26.9471 30.5181 27.2146 30.8611 27.4625 31.2198C27.2233 31.5018 26.9179 31.7115 26.5774 31.8278C26.2368 31.9442 25.8733 31.9629 25.5238 31.8821L25.5078 31.8736ZM26.5573 29.5896C26.2943 29.7807 25.998 29.9144 25.6858 29.9829C25.3736 30.0514 25.0516 30.0534 24.7387 29.9887C24.2428 29.8808 23.7931 29.6059 23.4567 29.205C23.1203 28.8041 22.9152 28.2987 22.872 27.7642C22.8445 27.4434 22.877 27.12 22.9677 26.8125C23.0585 26.5051 23.2056 26.2197 23.4008 25.9727V25.9727C23.5963 25.7154 23.8392 25.5029 24.1147 25.3482C24.3901 25.1935 24.6924 25.0997 25.0031 25.0727H25.3475C25.6447 25.0885 25.9361 25.1664 26.2048 25.3019C26.5766 25.4877 26.8959 25.7737 27.1307 26.1313C27.3655 26.4889 27.5075 26.9056 27.5427 27.3396C27.5833 27.7733 27.5151 28.2106 27.3449 28.6072C27.1746 29.0039 26.9084 29.3457 26.5733 29.5981L26.5573 29.5896ZM28.9607 2.56415C29.9884 2.14213 31.0673 1.8763 32.1653 1.77453C33.3126 1.64814 34.4722 1.79016 35.5621 2.19056C33.8877 2.68301 29.9541 4.02454 28.9607 6.07926C28.9351 6.12251 28.9215 6.17252 28.9215 6.22358C28.9215 6.27464 28.9351 6.32468 28.9607 6.36793C28.9857 6.41065 29.0214 6.44515 29.0638 6.46764C29.1063 6.49012 29.1538 6.4997 29.201 6.49529C30.4822 6.52776 31.7365 6.89214 32.8542 7.55661C31.4282 7.8368 28.504 8.60096 27.6548 10.35C27.6316 10.3926 27.6194 10.4409 27.6194 10.4901C27.6194 10.5393 27.6316 10.5876 27.6548 10.6302C27.6795 10.6738 27.7149 10.7095 27.7572 10.7334C27.7996 10.7574 27.8472 10.7686 27.8952 10.766C29.1278 10.7721 30.3159 11.2552 31.2359 12.1245C30.0182 12.2349 27.2703 12.6509 26.5653 14.0689C26.5383 14.1147 26.524 14.1677 26.524 14.2217C26.524 14.2758 26.5383 14.3287 26.5653 14.3745C26.5939 14.421 26.6357 14.4567 26.6846 14.4766C26.7335 14.4964 26.7871 14.4993 26.8376 14.4849C27.3375 14.3785 27.8542 14.4 28.3447 14.5477C28.8351 14.6953 29.2853 14.9649 29.6577 15.334C28.8867 15.3484 28.1322 15.5731 27.467 15.9866C26.8018 16.4 26.2485 16.9882 25.8603 17.6944C25.8348 17.7392 25.8214 17.7906 25.8214 17.8429C25.8214 17.8953 25.8348 17.9467 25.8603 17.9915C25.8879 18.0356 25.9264 18.0708 25.9716 18.0933C26.0168 18.1157 26.067 18.1246 26.1166 18.1189C26.8737 18.0635 27.6311 18.2216 28.3117 18.5774C26.951 19.9721 25.9167 21.6847 25.2915 23.5783C24.7226 19.5028 22.9441 5.79057 29.0248 2.57264L28.9607 2.56415ZM18.7301 19.1208C19.378 18.3057 20.2267 17.6973 21.1816 17.3632C21.2297 17.3487 21.273 17.3204 21.307 17.2814C21.3409 17.2425 21.364 17.1944 21.3739 17.1425C21.3816 17.0902 21.3761 17.0366 21.3578 16.9873C21.3395 16.9381 21.3091 16.8949 21.2697 16.8623C20.4768 16.2323 19.543 15.8314 18.56 15.6989C17.5769 15.5664 16.5782 15.707 15.6617 16.1066C16.3107 13.984 18.5939 13.5595 18.698 13.5085C18.7493 13.5016 18.7973 13.4784 18.8359 13.442C18.8745 13.4057 18.9019 13.3578 18.9144 13.3047C18.9262 13.2514 18.9242 13.1956 18.9087 13.1433C18.8932 13.0911 18.8647 13.0442 18.8262 13.0075C17.3361 11.683 13.787 12.7104 12.4171 13.1774C13.0878 11.6024 14.2996 10.3575 15.8059 9.69622C15.8515 9.67989 15.892 9.6507 15.923 9.61181C15.9541 9.57291 15.9745 9.52579 15.9822 9.47549C15.9904 9.426 15.9866 9.3751 15.9712 9.32759C15.9557 9.28007 15.9292 9.23748 15.894 9.20378C14.0674 7.54812 10.0938 8.25284 8.41138 8.6519C9.44675 7.2191 10.8085 6.08845 12.369 5.36603C12.4141 5.3489 12.4542 5.31948 12.4851 5.28073C12.5161 5.24197 12.5368 5.19526 12.5453 5.14529C12.5551 5.09579 12.5521 5.04439 12.5366 4.99656C12.5211 4.94872 12.4936 4.90622 12.4572 4.87358C10.2861 2.93773 4.84631 3.45564 2.84345 3.71885C5.87177 0.6113 10.8549 0.628294 10.9029 0.628294C19.6514 1.3415 23.7933 18.9594 24.7387 23.6547C23.1249 21.6518 21.073 20.0981 18.7621 19.1293L18.7301 19.1208ZM18.6099 26.9746C18.3973 26.1405 18.3973 25.2615 18.6099 24.4274C18.6248 24.377 18.6259 24.3231 18.6132 24.272C18.6004 24.2209 18.5743 24.1747 18.5378 24.1387C18.503 24.1015 18.459 24.0754 18.4108 24.0634C18.3627 24.0514 18.3123 24.0539 18.2654 24.0708C17.4889 24.3641 16.7966 24.8641 16.2551 25.5228C15.7135 26.1815 15.3409 26.9767 15.173 27.8321C14.8764 27.3374 14.6974 26.7738 14.6514 26.1897C14.6054 25.6056 14.6936 25.0184 14.9087 24.4783C14.9359 24.4341 14.9504 24.3825 14.9504 24.3297C14.9504 24.277 14.9359 24.2253 14.9087 24.1811C14.8743 24.1403 14.8297 24.1106 14.7801 24.0956C14.7304 24.0806 14.6778 24.0808 14.6283 24.0962C13.074 24.5802 12.1127 27.5944 11.7682 28.8934C11.0742 27.6894 10.8285 26.2545 11.0792 24.8689C11.0891 24.8201 11.087 24.7695 11.0729 24.7219C11.0589 24.6742 11.0334 24.6313 10.9991 24.5972C10.966 24.5599 10.9234 24.5335 10.8764 24.5215C10.8295 24.5094 10.7802 24.5121 10.7347 24.5293C8.82799 25.1151 7.47406 28.2651 6.92928 29.768C6.48845 28.3745 6.37569 26.888 6.60081 25.4378C6.6141 25.3885 6.6144 25.3364 6.60169 25.287C6.58898 25.2376 6.56374 25.1928 6.52871 25.1576C6.49459 25.1219 6.45196 25.0968 6.40539 25.0848C6.35883 25.0728 6.31006 25.0745 6.26432 25.0896C4.01311 25.8029 1.88207 29.9293 1.07291 31.6529C0.488078 28.0104 2.74729 24.3934 2.76331 24.3679C4.12525 22.5 6.31239 21.6595 8.81195 21.4302C14.46 20.9208 21.6302 23.5698 24.282 24.6311C22.2419 24.9211 20.297 25.7247 18.6099 26.9746ZM23.2565 25.4038L23.1204 25.5396H22.88L23.2565 25.4038ZM20.3484 28.8C20.3221 28.4738 20.3568 28.1452 20.4505 27.8332C20.5442 27.5212 20.6952 27.2319 20.8946 26.9818C21.0941 26.7318 21.3382 26.5259 21.6129 26.376C21.8876 26.2262 22.1875 26.1353 22.4955 26.1085H22.7358V26.151C22.7358 26.1934 22.6958 26.2444 22.6717 26.2868C22.6169 26.4025 22.5688 26.5216 22.5275 26.6434L22.4794 26.8217C22.447 26.9414 22.4229 27.0634 22.4073 27.1868V27.3481C22.3913 27.5317 22.3913 27.7165 22.4073 27.9C22.4196 28.0547 22.4437 28.208 22.4794 28.3585C22.4794 28.4095 22.4794 28.4604 22.5195 28.5113L22.6156 28.8L22.6877 28.9613C22.7257 29.0461 22.7685 29.1284 22.8159 29.2076L22.9121 29.3689C22.9583 29.4432 23.0091 29.5141 23.0643 29.5812L23.1844 29.7255C23.2418 29.7948 23.3034 29.86 23.3687 29.9208L23.5049 30.0396C23.5736 30.101 23.6458 30.1577 23.7212 30.2095L23.8574 30.3029C23.9729 30.3724 24.0934 30.432 24.2179 30.4812V30.4812C23.8477 30.8145 23.3882 31.0164 22.904 31.0585C22.5901 31.0899 22.2734 31.0541 21.9728 30.9534C21.6721 30.8526 21.3936 30.6889 21.1538 30.4719C20.914 30.255 20.7177 29.9892 20.5766 29.6903C20.4355 29.3914 20.3524 29.0656 20.3324 28.7321L20.3484 28.8ZM43.7017 66.4048C43.9063 66.9553 43.9874 67.5485 43.9387 68.1379C43.8901 68.7273 43.7129 69.2966 43.4213 69.801C42.3718 71.7369 39.1993 74.2246 30.0663 75.0567C18.8503 76.0671 15.7819 73.1123 14.9407 71.2529C14.6588 70.6736 14.5279 70.0251 14.5617 69.3742C14.5956 68.7234 14.7928 68.094 15.133 67.551C15.6037 66.9838 15.9925 66.3457 16.2866 65.6576C17.0878 63.9595 17.929 62.2105 23.3447 60.419C23.2405 60.852 23.1284 61.268 23.0162 61.7265C22.884 62.2371 22.8955 62.7775 23.0492 63.2814C23.2029 63.7852 23.4922 64.2304 23.8814 64.5623C24.6823 65.2389 25.6011 65.7417 26.5853 66.0418C27.5696 66.3419 28.5999 66.4335 29.6176 66.3114C30.2399 66.2552 30.8534 66.1184 31.4442 65.9039C32.3518 65.6012 33.1578 65.0279 33.7659 64.2524C34.374 63.4769 34.7584 62.5322 34.8731 61.5312V61.4718C34.8731 61.2935 34.801 60.4104 34.6728 59.0435C36.6255 59.3791 38.4698 60.2203 40.042 61.4926C41.6143 62.7649 42.8658 64.4289 43.6857 66.3369L43.7017 66.4048ZM30.1944 27.1783C30.2208 27.5039 30.1864 27.8318 30.0932 28.1433C29.9999 28.4548 29.8497 28.7438 29.6511 28.9937C29.4524 29.2437 29.2093 29.4497 28.9355 29.6C28.6617 29.7504 28.3626 29.842 28.0554 29.8698C27.7867 29.8974 27.5154 29.8744 27.2543 29.8019C27.3023 29.7595 27.3344 29.7085 27.3824 29.6576L27.4465 29.5812C27.5186 29.4878 27.5907 29.3859 27.6548 29.284C27.7109 29.1906 27.759 29.0887 27.807 28.9953L27.8551 28.8849C27.8551 28.8085 27.9112 28.7321 27.9352 28.6472C27.9593 28.5623 27.9352 28.5623 27.9753 28.5198C27.9987 28.4419 28.0174 28.3625 28.0314 28.2821V28.1548V27.9C28.0351 27.8605 28.0351 27.8207 28.0314 27.7812C28.0394 27.654 28.0394 27.5263 28.0314 27.3991C28.0314 27.2717 28.0314 27.1529 27.9753 27.0255C27.9192 26.8981 27.9753 26.9491 27.9753 26.9066C27.9753 26.8642 27.9352 26.7453 27.9112 26.6689L27.8631 26.5331C27.8371 26.4608 27.8077 26.3899 27.775 26.3208C27.7568 26.2766 27.7353 26.234 27.7109 26.1934C27.7109 26.1255 27.6388 26.0576 27.5987 25.9896L27.5266 25.8793C27.4775 25.8 27.4212 25.7261 27.3584 25.6585L27.3103 25.5906C27.2342 25.5043 27.154 25.4221 27.07 25.3444L26.9739 25.2679L26.8376 25.1491C27.0766 25.0383 27.3309 24.9695 27.5907 24.9453C28.204 24.8733 28.8193 25.0602 29.3036 25.4654C29.7879 25.8705 30.1021 26.4615 30.1784 27.1104L30.1944 27.1783ZM45.0476 16.9896C45.0004 16.9942 44.9551 17.0115 44.9158 17.0397C44.8766 17.0679 44.8448 17.1062 44.8233 17.151C44.8002 17.1951 44.788 17.2448 44.788 17.2953C44.788 17.3458 44.8002 17.3955 44.8233 17.4396C45.6247 18.8555 46.0817 20.4601 46.1532 22.1094C45.0556 20.8359 42.4439 18.1189 40.2488 18.3227C40.2023 18.3262 40.1576 18.343 40.1195 18.3715C40.0814 18.3999 40.0513 18.4388 40.0325 18.484C40.0093 18.5281 39.9972 18.5778 39.9972 18.6283C39.9972 18.6788 40.0093 18.7285 40.0325 18.7727C40.819 20.1146 41.1047 21.7193 40.8336 23.2727C40.0325 22.118 37.8534 19.3755 36.0668 19.5453C36.0148 19.5477 35.9646 19.5669 35.9231 19.6003C35.8816 19.6337 35.8507 19.6796 35.8345 19.7321C35.8148 19.7826 35.8103 19.8383 35.8218 19.8915C35.8333 19.9447 35.8601 19.9929 35.8986 20.0293C36.333 20.5002 36.6511 21.0775 36.8244 21.7099C36.9977 22.3424 37.0209 23.0105 36.892 23.6547C36.3944 22.8494 35.7106 22.1925 34.9056 21.7466C34.1007 21.3008 33.2014 21.0808 32.2934 21.1076C32.2428 21.111 32.194 21.1285 32.1518 21.1583C32.1096 21.1881 32.0755 21.2292 32.0531 21.2774C32.0334 21.326 32.0267 21.3795 32.0338 21.4319C32.0409 21.4843 32.0614 21.5337 32.0931 21.5746C32.6419 22.3573 32.9747 23.2861 33.0545 24.2576C31.5627 23.8635 30.0192 23.7372 28.488 23.884C27.7461 23.9565 27.0099 24.0842 26.2849 24.2661C29.4894 21.167 41.3864 10.316 48.3083 14.7057C48.3483 14.7057 52.1057 17.516 52.8507 21.5576C51.4567 20.1142 47.6353 16.7094 45.0476 16.9472V16.9896Z" fill="#999999"/>
<path d="M94.6932 19.4909C87.2746 14.7956 75.0412 26.105 71.9327 29.1871C72.5597 27.2325 73.646 25.4793 75.0892 24.0928C75.1231 24.0647 75.1501 24.0285 75.1682 23.9872C75.1863 23.9458 75.195 23.9006 75.1934 23.855C75.1935 23.8113 75.1833 23.7681 75.1637 23.7296C75.1441 23.6911 75.1158 23.6583 75.0812 23.6343C74.394 23.142 73.5872 22.8707 72.7579 22.8532C73.1847 22.2959 73.733 21.8571 74.3555 21.5746C74.978 21.2921 75.656 21.1743 76.331 21.2314C76.3808 21.2392 76.4317 21.2313 76.4773 21.2087C76.5229 21.186 76.5612 21.1497 76.5874 21.1041C76.6127 21.0576 76.626 21.0049 76.626 20.9513C76.626 20.8976 76.6127 20.8449 76.5874 20.7984C76.2599 20.2734 75.8074 19.8492 75.2757 19.569C74.7439 19.2887 74.1517 19.1622 73.559 19.2022C74.6085 18.3532 76.9879 18.0475 77.9493 18.0135C78.0006 18.013 78.0506 17.9966 78.0933 17.9665C78.136 17.9363 78.1694 17.8937 78.1896 17.8437C78.2093 17.7951 78.216 17.7416 78.2089 17.6892C78.2019 17.6368 78.1813 17.5874 78.1496 17.5465C77.2218 16.4029 75.9066 15.6923 74.4884 15.5682C75.8183 13.8701 79.7599 13.3607 79.7999 13.3522C79.8562 13.3476 79.9095 13.3235 79.9515 13.2836C79.9935 13.2437 80.0219 13.1902 80.0323 13.1315C80.0455 13.0986 80.0524 13.0632 80.0527 13.0275C80.053 12.9918 80.0466 12.9563 80.034 12.9232C80.0213 12.8901 80.0027 12.8599 79.979 12.8345C79.9553 12.809 79.9271 12.7887 79.8961 12.7748C78.6457 11.931 77.2281 11.405 75.7542 11.238C77.3564 9.13238 82.4517 7.84182 82.5078 7.84182C82.5622 7.82833 82.6113 7.79747 82.6485 7.75343C82.6858 7.7094 82.7094 7.6543 82.7161 7.59558C82.7224 7.53766 82.712 7.47908 82.6862 7.42755C82.6605 7.37602 82.6206 7.33396 82.5719 7.30691C79.159 5.422 74.9931 7.25596 74.8008 7.30691C69.994 9.85408 69.7777 18.3022 70.2824 24.1522C68.3917 17.0456 64.2818 5.91446 57.0155 5.32861C56.7751 5.32861 51.111 5.32859 48.0026 9.20879C47.9712 9.25601 47.9544 9.31236 47.9544 9.37011C47.9544 9.42787 47.9712 9.48421 48.0026 9.53143C48.0306 9.5822 48.0722 9.62301 48.1221 9.64871C48.172 9.6744 48.228 9.68383 48.283 9.67578C48.3551 9.67578 55.1248 8.51256 57.8967 10.2956C56.2057 11.2248 54.7518 12.5735 53.6587 14.2267C53.6259 14.2766 53.6084 14.3358 53.6084 14.3965C53.6084 14.4573 53.6259 14.5165 53.6587 14.5663C53.6913 14.6149 53.7373 14.6516 53.7904 14.6714C53.8434 14.6912 53.901 14.693 53.9551 14.6767C54.0112 14.6767 59.0343 13.1909 61.3416 14.6343C60.5293 15.0516 59.8039 15.6369 59.2081 16.3558C58.6124 17.0747 58.1583 17.9125 57.8727 18.8201C57.8561 18.8717 57.8541 18.9273 57.8669 18.9801C57.8798 19.0329 57.9068 19.0806 57.9448 19.1173C57.9807 19.1556 58.0265 19.1817 58.0764 19.1923C58.1264 19.2029 58.1782 19.1975 58.2252 19.1767C59.4189 18.7098 62.5273 17.7843 64.1296 18.4126C63.3919 18.6401 62.7268 19.0765 62.2058 19.675C61.6849 20.2735 61.3279 21.0112 61.1734 21.8088C61.1656 21.862 61.172 21.9163 61.1918 21.9658C61.2116 22.0154 61.2441 22.058 61.2855 22.089C61.3294 22.1158 61.3791 22.1299 61.4298 22.1299C61.4804 22.1299 61.5301 22.1158 61.574 22.089C62.3664 21.6566 63.2492 21.4438 64.1401 21.4706C65.0311 21.4973 65.9011 21.7626 66.6692 22.2418C65.6689 22.6711 64.8125 23.4073 64.2097 24.356C64.1901 24.3952 64.1798 24.4389 64.1798 24.4834C64.1798 24.5278 64.1901 24.5715 64.2097 24.6107C64.2246 24.6526 64.2481 24.6903 64.2786 24.7212C64.3091 24.7521 64.3458 24.7752 64.386 24.789C66.7441 25.6856 68.8421 27.2157 70.4746 29.2296C66.517 27.6079 53.0898 22.7258 48.3791 29.2296C48.267 29.4079 45.6152 33.6447 46.7768 37.7966C46.7928 37.8523 46.8244 37.9015 46.8673 37.9379C46.9101 37.9743 46.9624 37.996 47.0172 38.0003H47.0573C47.1053 37.9949 47.1512 37.9764 47.1905 37.9467C47.2298 37.9169 47.2611 37.8769 47.2816 37.8305C47.2816 37.7711 49.6209 32.3032 52.0404 31.0381C51.8961 32.7128 52.1266 34.4 52.7133 35.9626C52.7319 36.0185 52.7668 36.0666 52.8128 36.1002C52.8589 36.1338 52.9138 36.151 52.9697 36.1494C53.0273 36.1485 53.0831 36.1283 53.1291 36.0917C53.1752 36.0551 53.2091 36.004 53.2261 35.9456C53.2261 35.9032 54.5479 31.59 56.5188 30.4777C56.431 31.272 56.492 32.0768 56.6982 32.8461C56.9044 33.6154 57.2518 34.334 57.7205 34.9607C57.7526 35.0024 57.7954 35.0333 57.8437 35.0499C57.892 35.0664 57.9438 35.0679 57.9929 35.0541C58.0422 35.0435 58.0875 35.0177 58.1232 34.9799C58.1588 34.9422 58.1831 34.8942 58.1931 34.8418C58.4255 33.772 59.2026 31.14 60.3002 30.172C60.1327 30.8237 60.132 31.511 60.2981 32.1631C60.4643 32.8152 60.7913 33.4086 61.2455 33.8824C61.2829 33.9181 61.3287 33.9424 61.378 33.9529C61.4273 33.9633 61.4784 33.9595 61.5259 33.9418C61.5738 33.9219 61.6155 33.8884 61.6466 33.8449C61.6777 33.8015 61.6969 33.7499 61.7022 33.6956C61.7865 32.9283 62.0458 32.1942 62.4575 31.5566C62.8692 30.9191 63.4211 30.3973 64.0655 30.0362C63.906 30.9633 64.0062 31.9197 64.3539 32.7871C64.37 32.8279 64.3951 32.8638 64.4272 32.8919C64.4593 32.9201 64.4974 32.9395 64.5382 32.9485C64.5786 32.9579 64.6206 32.9575 64.6608 32.9472C64.7011 32.9369 64.7386 32.917 64.7705 32.889C65.4035 32.3628 66.095 31.9209 66.8295 31.573C66.5086 31.8867 66.2596 32.2738 66.1013 32.7049C65.9431 33.136 65.8797 33.5997 65.9161 34.0607C65.9814 34.8701 66.3471 35.6189 66.9329 36.1427C67.5188 36.6664 68.2769 36.9223 69.0406 36.8541C69.6685 36.7957 70.2602 36.518 70.723 36.0645C71.404 37.9494 74.0077 46.9834 69.6014 64.9325C63.6569 66.8258 62.7116 68.8127 61.8864 70.5702C61.6188 71.2088 61.2623 71.8012 60.8289 72.3278C60.4101 72.9552 60.1624 73.6928 60.1129 74.4596C60.0634 75.2264 60.2141 75.9929 60.5485 76.6749C61.6461 79.1032 65.2592 81.7693 76.2028 80.7928C83.7336 80.1136 88.3722 78.2457 89.9905 75.24C90.319 74.6643 90.5161 74.0153 90.5662 73.3446C90.6162 72.6739 90.5179 72.0001 90.2789 71.3768C88.6766 67.3183 84.5747 64.0325 80.6652 63.6334C80.0403 57.0872 78.1256 41.7447 73.5911 35.6145C73.7829 35.6357 73.9762 35.6357 74.1679 35.6145C74.9323 35.5432 75.6388 35.1538 76.1329 34.5316C76.6269 33.9094 76.8681 33.105 76.8037 32.2947C76.7539 31.6857 76.5324 31.1066 76.1681 30.6327C75.8038 30.1588 75.3135 29.8119 74.7608 29.6371C76.304 29.495 77.8588 29.6475 79.3513 30.0871C79.3875 30.1059 79.4272 30.1156 79.4675 30.1156C79.5077 30.1156 79.5475 30.1059 79.5836 30.0871C79.6192 30.0636 79.6487 30.0311 79.6697 29.9926C79.6906 29.9541 79.7023 29.9108 79.7038 29.8664C79.724 28.8104 79.4449 27.7723 78.9027 26.8862C79.7168 26.9676 80.4989 27.2625 81.1786 27.7442C81.8583 28.2259 82.4142 28.8794 82.7962 29.6456C82.8184 29.6934 82.8525 29.7337 82.8949 29.7622C82.9374 29.7906 82.9864 29.8061 83.0366 29.8069C83.0868 29.8061 83.1358 29.7906 83.1782 29.7622C83.2206 29.7337 83.2548 29.6934 83.2769 29.6456C83.5677 28.9583 83.6765 28.2002 83.5919 27.4524C83.5072 26.7045 83.2321 25.9952 82.7962 25.4003C84.3024 25.8673 86.161 28.2871 86.8019 29.306C86.8294 29.3481 86.8668 29.382 86.9103 29.4043C86.9538 29.4266 87.002 29.4366 87.0503 29.4333V29.4333C87.1011 29.4253 87.1487 29.4018 87.1871 29.3656C87.2255 29.3294 87.2531 29.2822 87.2666 29.2296C87.504 28.3875 87.5823 27.5041 87.497 26.63C87.4118 25.7558 87.1647 24.908 86.7699 24.1352C89.2294 24.39 92.2577 28.3041 92.2898 28.3805C92.3257 28.4268 92.374 28.4605 92.4283 28.4772C92.4827 28.4938 92.5405 28.4927 92.5942 28.4739C92.649 28.455 92.6962 28.4171 92.7282 28.3662C92.7602 28.3154 92.7751 28.2546 92.7704 28.1937C92.7772 26.3321 92.3652 24.4955 91.5687 22.8362C94.541 23.0739 99.0514 27.7437 99.0995 27.7947C99.1388 27.8358 99.1893 27.8629 99.244 27.872C99.2986 27.8812 99.3545 27.8719 99.4039 27.8456C99.4535 27.8213 99.4947 27.7813 99.522 27.7311C99.5492 27.681 99.5612 27.6231 99.5561 27.5654C99.2116 22.8362 94.8935 19.6352 94.6932 19.4909ZM80.3607 66.707C80.2559 67.5991 79.9108 68.4403 79.3666 69.1299C78.8224 69.8196 78.1023 70.3285 77.2924 70.5957C75.0171 71.4447 71.8045 70.8844 70.2824 69.373C69.9723 69.1062 69.7406 68.7512 69.6143 68.3496C69.488 67.9481 69.4724 67.5166 69.5693 67.106L69.7616 66.3589C71.7321 67.135 73.8308 67.4787 75.9304 67.3692C77.5658 67.2994 79.1127 66.5634 80.2486 65.3145C80.3207 66.0872 80.3527 66.5796 80.3607 66.707V66.707ZM80.1765 64.4994C77.4286 68.4136 71.1556 66.2825 69.8978 65.7985C70.2663 64.3551 70.5895 62.9683 70.8672 61.6381C72.283 62.5645 73.9455 62.9759 75.602 62.8098C77.1034 62.641 78.5522 62.1282 79.848 61.307C79.9842 62.5466 80.0964 63.6334 80.1765 64.4994ZM79.7759 60.6872C74.9691 63.7438 71.6684 61.5362 70.9634 61.0353C71.2357 59.7023 71.4601 58.4287 71.6603 57.2145C72.952 57.6565 74.3128 57.8267 75.6661 57.7155C76.9035 57.6115 78.1043 57.2201 79.1831 56.5692C79.4474 58.0381 79.6237 59.473 79.7759 60.6872ZM71.7645 56.6372C71.9648 55.3636 72.125 54.1409 72.2452 52.9947C73.3052 53.4056 74.4374 53.565 75.5619 53.4617C76.6126 53.3673 77.6317 53.0342 78.5502 52.4853C78.7665 53.6655 78.9507 54.8287 79.119 55.9579C78.0077 56.6059 76.781 57.001 75.5174 57.118C74.2537 57.235 72.981 57.0712 71.7805 56.6372H71.7645ZM72.3012 52.3919C72.4054 51.3051 72.4855 50.2692 72.5336 49.2928C73.4387 49.6114 74.3952 49.7326 75.3456 49.6494C76.2254 49.5664 77.0766 49.2763 77.8371 48.8004C78.0534 49.8107 78.2618 50.8381 78.446 51.8485C77.5273 52.4171 76.5005 52.7617 75.4404 52.8572C74.3803 52.9526 73.3134 52.7966 72.3173 52.4004L72.3012 52.3919ZM72.5656 48.69C72.5656 47.7815 72.6137 46.9239 72.6057 46.1428C73.1974 46.2569 73.8008 46.2883 74.4003 46.2362C75.3252 46.1701 76.2138 45.8287 76.9639 45.2513C77.2283 46.2362 77.4766 47.2466 77.701 48.2654C76.9284 48.7269 76.0703 49.0046 75.1863 49.0794C74.3023 49.1541 73.4135 49.0242 72.5816 48.6985L72.5656 48.69ZM72.6057 45.523C72.6057 44.5126 72.5416 43.5872 72.4695 42.7381C72.9002 42.8414 73.3435 42.8729 73.7834 42.8315C74.5772 42.7556 75.339 42.4631 75.9945 41.9824C76.2749 42.8315 76.5473 43.6805 76.7957 44.606C76.1996 45.0608 75.5202 45.3782 74.8012 45.5376C74.0823 45.697 73.3398 45.6949 72.6217 45.5315L72.6057 45.523ZM72.4214 42.1268C72.352 41.4136 72.2719 40.7598 72.1811 40.1655C72.4342 40.1917 72.6891 40.1917 72.9422 40.1655C73.6818 40.1108 74.3872 39.8141 74.961 39.3164C75.2575 39.9871 75.5299 40.7004 75.8023 41.439C75.329 41.8201 74.7795 42.081 74.1962 42.2017C73.6129 42.3224 73.0112 42.2997 72.4374 42.1352L72.4214 42.1268ZM72.093 39.5796C71.9728 38.9004 71.8526 38.3145 71.7324 37.8135C71.8976 37.8306 72.064 37.8306 72.2291 37.8135C72.8338 37.7697 73.403 37.4952 73.8314 37.0409C74.1658 37.5882 74.4708 38.1552 74.7447 38.739C74.3926 39.0793 73.9733 39.3322 73.5173 39.479C73.0614 39.6259 72.5802 39.6632 72.109 39.5881L72.093 39.5796ZM71.5722 37.2022C71.42 36.6418 71.2838 36.2258 71.1797 35.9371H71.5241C71.9491 35.8958 72.3598 35.7536 72.7258 35.5211C73.0116 35.8467 73.2791 36.1898 73.527 36.5485C73.2877 36.8304 72.9823 37.0401 72.6418 37.1565C72.3013 37.2728 71.9378 37.2915 71.5882 37.2107L71.5722 37.2022ZM72.6217 34.9183C72.3587 35.1093 72.0625 35.243 71.7503 35.3115C71.438 35.38 71.1161 35.382 70.8031 35.3173C70.3072 35.2094 69.8576 34.9345 69.5212 34.5336C69.1848 34.1327 68.9797 33.6273 68.9365 33.0928C68.9089 32.772 68.9414 32.4486 69.0322 32.1411C69.1229 31.8337 69.2701 31.5483 69.4652 31.3013V31.3013C69.6608 31.044 69.9037 30.8315 70.1791 30.6768C70.4546 30.5221 70.7568 30.4283 71.0675 30.4013H71.412C71.7092 30.4171 72.0005 30.495 72.2692 30.6305C72.6411 30.8163 72.9604 31.1023 73.1951 31.4599C73.4299 31.8175 73.572 32.2342 73.6071 32.6683C73.6478 33.1019 73.5796 33.5392 73.4093 33.9358C73.2391 34.3325 72.9729 34.6743 72.6377 34.9268L72.6217 34.9183ZM75.0251 7.89276C76.0529 7.47075 77.1317 7.20491 78.2297 7.10314C79.3771 6.97676 80.5366 7.11877 81.6266 7.51917C79.9522 8.01162 76.0186 9.35315 75.0251 11.4079C74.9996 11.4511 74.986 11.5011 74.986 11.5522C74.986 11.6033 74.9996 11.6533 75.0251 11.6965C75.0502 11.7393 75.0859 11.7738 75.1283 11.7963C75.1707 11.8187 75.2182 11.8283 75.2655 11.8239C76.5467 11.8564 77.8009 12.2208 78.9187 12.8852C77.4927 13.1654 74.5685 13.9296 73.7193 15.6786C73.6961 15.7212 73.6839 15.7695 73.6839 15.8187C73.6839 15.8679 73.6961 15.9162 73.7193 15.9588C73.7439 16.0024 73.7793 16.0381 73.8217 16.0621C73.864 16.086 73.9117 16.0973 73.9596 16.0947C75.1922 16.1007 76.3803 16.5838 77.3004 17.4532C76.0827 17.5635 73.3347 17.9796 72.6297 19.3975C72.6027 19.4433 72.5884 19.4963 72.5884 19.5503C72.5884 19.6044 72.6027 19.6573 72.6297 19.7032C72.6583 19.7496 72.7001 19.7853 72.749 19.8052C72.7979 19.825 72.8515 19.8279 72.9021 19.8135C73.402 19.7071 73.9186 19.7286 74.4091 19.8763C74.8996 20.0239 75.3497 20.2935 75.7221 20.6626C74.9511 20.677 74.1966 20.9017 73.5315 21.3152C72.8663 21.7286 72.3129 22.3168 71.9247 23.023C71.8993 23.0679 71.8859 23.1192 71.8859 23.1715C71.8859 23.2239 71.8993 23.2753 71.9247 23.3201C71.9523 23.3642 71.9908 23.3994 72.036 23.4219C72.0813 23.4444 72.1314 23.4532 72.1811 23.4475C72.9382 23.3921 73.6956 23.5503 74.3762 23.906C73.0154 25.3007 71.9812 27.0133 71.3559 28.9069C70.7871 24.8315 69.0086 11.1192 75.0892 7.90126L75.0251 7.89276ZM64.7945 24.4494C65.4424 23.6343 66.2911 23.0259 67.246 22.6918C67.2941 22.6773 67.3375 22.649 67.3714 22.6101C67.4053 22.5711 67.4285 22.523 67.4383 22.4711C67.4461 22.4188 67.4405 22.3652 67.4222 22.316C67.4039 22.2667 67.3735 22.2235 67.3342 22.1909C66.5413 21.5609 65.6075 21.16 64.6244 21.0275C63.6413 20.8951 62.6426 21.0356 61.7262 21.4352C62.3751 19.3126 64.6583 18.8881 64.7625 18.8371C64.8137 18.8302 64.8618 18.807 64.9004 18.7707C64.939 18.7343 64.9663 18.6864 64.9788 18.6333C64.9906 18.58 64.9887 18.5242 64.9731 18.472C64.9576 18.4197 64.9292 18.3728 64.8907 18.3362C63.4006 17.0116 59.8515 18.039 58.4815 18.506C59.1522 16.931 60.3641 15.6862 61.8704 15.0248C61.9159 15.0085 61.9564 14.9793 61.9875 14.9404C62.0185 14.9015 62.039 14.8544 62.0466 14.8041C62.0548 14.7546 62.051 14.7037 62.0356 14.6562C62.0202 14.6087 61.9937 14.5661 61.9585 14.5324C60.1319 12.8767 56.1582 13.5815 54.4758 13.9805C55.5112 12.5477 56.873 11.4171 58.4335 10.6946C58.4786 10.6775 58.5186 10.6481 58.5496 10.6093C58.5805 10.5706 58.6013 10.5239 58.6097 10.4739C58.6195 10.4244 58.6165 10.373 58.601 10.3252C58.5855 10.2773 58.5581 10.2348 58.5216 10.2022C56.3505 8.26634 50.9108 8.78426 48.9079 9.04746C51.9362 5.93991 56.9193 5.95691 56.9674 5.95691C65.7159 6.67012 69.8578 24.2881 70.8031 28.9833C69.1894 26.9804 67.1375 25.4267 64.8266 24.4579L64.7945 24.4494ZM64.6744 32.3032C64.4617 31.4691 64.4617 30.5901 64.6744 29.756C64.6893 29.7056 64.6904 29.6517 64.6776 29.6006C64.6649 29.5496 64.6388 29.5033 64.6023 29.4673C64.5674 29.4301 64.5234 29.404 64.4753 29.392C64.4271 29.38 64.3767 29.3826 64.3299 29.3994C63.5534 29.6927 62.8611 30.1927 62.3195 30.8514C61.778 31.5101 61.4053 32.3054 61.2375 33.1607C60.9409 32.666 60.7619 32.1024 60.7159 31.5183C60.6698 30.9342 60.7581 30.347 60.9731 29.8069C61.0003 29.7628 61.0148 29.7111 61.0148 29.6584C61.0148 29.6056 61.0003 29.5539 60.9731 29.5098C60.9388 29.4689 60.8942 29.4392 60.8445 29.4242C60.7949 29.4092 60.7422 29.4094 60.6927 29.4249C59.1385 29.9088 58.1771 32.923 57.8326 34.222C57.1386 33.018 56.893 31.5831 57.1436 30.1975C57.1536 30.1487 57.1514 30.0981 57.1374 30.0505C57.1233 30.0029 57.0979 29.9599 57.0635 29.9258C57.0305 29.8885 56.9879 29.8621 56.9409 29.8501C56.8939 29.838 56.8447 29.8407 56.7992 29.8579C54.8924 30.4437 53.5385 33.5937 52.9937 35.0966C52.5529 33.7031 52.4401 32.2166 52.6653 30.7664C52.6786 30.7171 52.6789 30.665 52.6661 30.6156C52.6534 30.5662 52.6282 30.5214 52.5932 30.4862C52.559 30.4505 52.5164 30.4254 52.4698 30.4134C52.4233 30.4014 52.3745 30.4031 52.3288 30.4183C50.0776 31.1315 47.9465 35.2579 47.1374 36.9815C46.5525 33.339 48.8117 29.722 48.8278 29.6966C50.1897 27.8286 52.3768 26.9881 54.8764 26.7588C60.5245 26.2494 67.6947 28.8984 70.3465 29.9598C68.3063 30.2497 66.3614 31.0533 64.6744 32.3032ZM69.321 30.7324L69.1848 30.8683H68.9445L69.321 30.7324ZM66.4129 34.1286C66.3865 33.8024 66.4212 33.4738 66.5149 33.1618C66.6087 32.8498 66.7596 32.5605 66.9591 32.3104C67.1586 32.0604 67.4027 31.8545 67.6774 31.7046C67.9521 31.5548 68.252 31.4639 68.5599 31.4371H68.8003V31.4796C68.8003 31.522 68.7602 31.573 68.7362 31.6154C68.6814 31.7311 68.6332 31.8502 68.592 31.972L68.5439 32.1503C68.5115 32.27 68.4874 32.392 68.4718 32.5154V32.6768C68.4558 32.8603 68.4558 33.0451 68.4718 33.2286C68.4841 33.3833 68.5082 33.5366 68.5439 33.6871C68.5439 33.7381 68.5439 33.789 68.584 33.84L68.6801 34.1286L68.7522 34.29C68.7901 34.3747 68.8329 34.457 68.8804 34.5362L68.9765 34.6975C69.0227 34.7718 69.0736 34.8427 69.1287 34.9098L69.2489 35.0541C69.3063 35.1234 69.3678 35.1886 69.4332 35.2494L69.5693 35.3683C69.638 35.4296 69.7103 35.4863 69.7857 35.5381L69.9219 35.6315C70.0373 35.701 70.1579 35.7607 70.2824 35.8098V35.8098C69.9121 36.1431 69.4526 36.345 68.9685 36.3871C68.6546 36.4185 68.3379 36.3827 68.0372 36.282C67.7366 36.1812 67.4581 36.0175 67.2183 35.8005C66.9784 35.5836 66.7821 35.3178 66.641 35.0189C66.4999 34.7201 66.4169 34.3942 66.3968 34.0607L66.4129 34.1286ZM89.7662 71.7334C89.9707 72.2839 90.0519 72.8771 90.0032 73.4665C89.9545 74.0559 89.7774 74.6252 89.4858 75.1296C88.4363 77.0655 85.2637 79.5532 76.1307 80.3853C64.9147 81.3957 61.8464 78.441 61.0052 76.5815C60.7232 76.0022 60.5924 75.3537 60.6262 74.7029C60.66 74.052 60.8572 73.4226 61.1974 72.8796C61.6682 72.3124 62.0569 71.6743 62.3511 70.9862C63.1522 69.2881 63.9934 67.5391 69.4091 65.7476C69.305 66.1806 69.1928 66.5966 69.0807 67.0551C68.9485 67.5657 68.9599 68.1062 69.1136 68.61C69.2674 69.1138 69.5566 69.559 69.9459 69.8909C70.7467 70.5676 71.6655 71.0703 72.6498 71.3704C73.634 71.6705 74.6644 71.7621 75.6821 71.64C76.3044 71.5838 76.9178 71.447 77.5087 71.2325C78.4162 70.9298 79.2223 70.3565 79.8304 69.581C80.4385 68.8055 80.8229 67.8608 80.9376 66.8598V66.8004C80.9376 66.6221 80.8655 65.7391 80.7373 64.3721C82.6899 64.7077 84.5342 65.5489 86.1065 66.8212C87.6787 68.0935 88.9303 69.7575 89.7501 71.6655L89.7662 71.7334ZM76.2589 32.5069C76.2853 32.8325 76.2509 33.1604 76.1576 33.4719C76.0644 33.7834 75.9142 34.0724 75.7155 34.3223C75.5169 34.5723 75.2737 34.7783 74.9999 34.9286C74.7261 35.079 74.4271 35.1707 74.1199 35.1985C73.8511 35.226 73.5799 35.203 73.3187 35.1305C73.3668 35.0881 73.3988 35.0371 73.4469 34.9862L73.511 34.9098C73.5831 34.8164 73.6552 34.7145 73.7193 34.6126C73.7754 34.5192 73.8234 34.4173 73.8715 34.3239L73.9196 34.2135C73.9196 34.1371 73.9757 34.0607 73.9997 33.9758C74.0237 33.8909 73.9997 33.8909 74.0397 33.8485C74.0631 33.7705 74.0819 33.6911 74.0958 33.6107V33.4834V33.2286C74.0995 33.1891 74.0995 33.1493 74.0958 33.1098C74.1038 32.9826 74.1038 32.8549 74.0958 32.7277C74.0958 32.6003 74.0958 32.4815 74.0397 32.3541C73.9837 32.2268 74.0397 32.2777 74.0397 32.2353C74.0397 32.1928 73.9997 32.0739 73.9756 31.9975L73.9276 31.8617C73.9016 31.7894 73.8722 31.7185 73.8394 31.6494C73.8212 31.6052 73.7998 31.5626 73.7753 31.522C73.7753 31.4541 73.7033 31.3862 73.6632 31.3183L73.5911 31.2079C73.542 31.1286 73.4856 31.0547 73.4229 30.9871L73.3748 30.9192C73.2986 30.8329 73.2184 30.7507 73.1344 30.673L73.0383 30.5966L72.9021 30.4777C73.141 30.3669 73.3954 30.2981 73.6552 30.2739C74.2684 30.2019 74.8838 30.3888 75.368 30.794C75.8523 31.1992 76.1666 31.7901 76.2429 32.439L76.2589 32.5069ZM91.1121 22.3182C91.0649 22.3228 91.0195 22.3401 90.9803 22.3683C90.9411 22.3965 90.9092 22.4348 90.8878 22.4796C90.8646 22.5237 90.8524 22.5734 90.8524 22.6239C90.8524 22.6744 90.8646 22.7241 90.8878 22.7682C91.6891 24.1841 92.1461 25.7887 92.2177 27.4381C91.1201 26.1645 88.5084 23.4475 86.3132 23.6513C86.2668 23.6548 86.222 23.6717 86.1839 23.7001C86.1458 23.7285 86.1157 23.7674 86.0969 23.8126C86.0738 23.8567 86.0616 23.9064 86.0616 23.9569C86.0616 24.0075 86.0738 24.0571 86.0969 24.1013C86.8834 25.4432 87.1691 27.0479 86.8981 28.6013C86.0969 27.4466 83.9178 24.7041 82.1313 24.8739C82.0792 24.8763 82.0291 24.8955 81.9876 24.9289C81.9461 24.9623 81.9152 25.0082 81.8989 25.0607C81.8792 25.1112 81.8748 25.1669 81.8862 25.2201C81.8977 25.2734 81.9246 25.3215 81.963 25.3579C82.3975 25.8288 82.7155 26.4061 82.8888 27.0386C83.0621 27.671 83.0854 28.3391 82.9565 28.9833C82.4589 28.178 81.775 27.5211 80.9701 27.0752C80.1651 26.6294 79.2658 26.4094 78.3579 26.4362C78.3073 26.4396 78.2584 26.4571 78.2162 26.4869C78.174 26.5167 78.14 26.5578 78.1175 26.606C78.0979 26.6547 78.0912 26.7081 78.0983 26.7605C78.1053 26.8129 78.1258 26.8623 78.1576 26.9032C78.7063 27.6859 79.0392 28.6147 79.119 29.5862C77.6272 29.1921 76.0836 29.0658 74.5525 29.2126C73.8105 29.2851 73.0743 29.4128 72.3493 29.5947C75.5539 26.4956 87.4509 15.6446 94.3727 20.0343C94.4128 20.0343 98.1701 22.8447 98.9152 26.8862C97.5212 25.4428 93.6998 22.0381 91.1121 22.2758V22.3182Z" fill="#999999"/>
</svg>
