<svg width="19" height="17" viewBox="0 0 19 17" fill="none" xmlns="http://www.w3.org/2000/svg">
<path d="M18.8818 1.74644L10.9598 16.5153C10.8936 16.639 10.7812 16.7405 10.6402 16.8038C10.4993 16.8671 10.3377 16.8888 10.1809 16.8653C10.024 16.8418 9.88071 16.7746 9.77331 16.6742C9.66591 16.5737 9.60051 16.4457 9.58733 16.3101L8.91756 9.44459L0.882726 8.8723C0.724037 8.86103 0.57419 8.80515 0.456623 8.71338C0.339055 8.62161 0.260397 8.49914 0.232949 8.36511C0.205501 8.23109 0.230811 8.09307 0.304922 7.97264C0.379032 7.85221 0.497763 7.75617 0.642546 7.69953L17.9269 0.930461C18.0605 0.878137 18.2096 0.862 18.3543 0.884217C18.499 0.906435 18.6322 0.965943 18.7361 1.05475C18.8401 1.14356 18.9097 1.25741 18.9357 1.38102C18.9617 1.50463 18.9428 1.63208 18.8816 1.74626L18.8818 1.74644Z" fill="#FA7436"/>
</svg>
